<?xml version="1.0" standalone="no"?>
<!DOCTYPE svg PUBLIC "-//W3C//DTD SVG 1.1//EN" "http://www.w3.org/Graphics/SVG/1.1/DTD/svg11.dtd" >
<svg xmlns="http://www.w3.org/2000/svg" xmlns:xlink="http://www.w3.org/1999/xlink" version="1.1">
<metadata>
Created by FontForge 20170731 at Sat Sep 28 15:39:43 2013
 By Aleksey,,,
QuillScript Typeface (c) (Shaedandu). 2010. All Rights Reserved
</metadata>
<defs>
<font id="QuillScript" horiz-adv-x="999" >
  <font-face 
    font-family="QuillScript"
    font-weight="400"
    font-stretch="normal"
    units-per-em="2048"
    panose-1="2 0 5 0 0 0 0 0 0 0"
    ascent="1638"
    descent="-410"
    x-height="739"
    cap-height="1221"
    bbox="-289.53 -639.558 2048 1716"
    underline-thickness="150"
    underline-position="-742"
    unicode-range="U+001D-F002"
  />
<missing-glyph horiz-adv-x="1024" 
d="M100 0v1434h824v-1434h-824zM150 50h724v1334h-724v-1334zM325 1148q31 28 58 43q53 30 112 30q92 0 148 -47.5t56 -127.5q0 -49 -23 -98.5t-87 -129.5q-63 -80 -99 -132t-36 -99q0 -38 24 -133h-32q-35 97 -35 148q0 76 81.5 218t81.5 217q0 57 -33 90t-91 33
q-38 0 -69 -17q-26 -15 -56 -40v45zM389 334l57 58q11 10 20 10q10 0 22 -11l56 -60q9 -11 9 -20q0 -11 -10 -22l-56 -62q-14 -14 -21 -14q-11 0 -20 10l-61 71q-7 9 -7 18q0 10 11 22z" />
    <glyph glyph-name=".notdef" horiz-adv-x="1024" 
d="M100 0v1434h824v-1434h-824zM150 50h724v1334h-724v-1334zM325 1148q31 28 58 43q53 30 112 30q92 0 148 -47.5t56 -127.5q0 -49 -23 -98.5t-87 -129.5q-63 -80 -99 -132t-36 -99q0 -38 24 -133h-32q-35 97 -35 148q0 76 81.5 218t81.5 217q0 57 -33 90t-91 33
q-38 0 -69 -17q-26 -15 -56 -40v45zM389 334l57 58q11 10 20 10q10 0 22 -11l56 -60q9 -11 9 -20q0 -11 -10 -22l-56 -62q-14 -14 -21 -14q-11 0 -20 10l-61 71q-7 9 -7 18q0 10 11 22z" />
    <glyph glyph-name=".null" horiz-adv-x="0" 
 />
    <glyph glyph-name=".null" horiz-adv-x="0" 
 />
    <glyph glyph-name="nonmarkingreturn" horiz-adv-x="508" 
 />
    <glyph glyph-name="space" unicode=" " horiz-adv-x="503" 
 />
    <glyph glyph-name="space" unicode="&#xa0;" horiz-adv-x="503" 
 />
    <glyph glyph-name="exclam" unicode="!" horiz-adv-x="357" 
d="M67 111l53 36q9 6 17 4q7 -1 15 -11l34 -52q5 -10 4 -16q-1 -9 -11 -16l-52 -37q-12 -9 -17 -8q-9 2 -14 10l-38 61q-4 7 -2 14q1 8 11 15zM176 338q-38 -13 -81 -45l81 912q50 6 132 79z" />
    <glyph glyph-name="quotedbl" unicode="&#x22;" horiz-adv-x="510" 
d="M147 920h-30l-62 273q-4 18 -4 25q0 29 20.5 44t59.5 15t60.5 -15t21.5 -43q0 -6 -4 -26zM399 926h-30l-62 269q-4 17 -4 24q0 28 20.5 43t59.5 15t60.5 -14.5t21.5 -42.5q0 -6 -4 -25z" />
    <glyph glyph-name="numbersign" unicode="#" horiz-adv-x="977" 
d="M436 607l-70 -217h199l72 217h-201zM529 900l-71 -222h196l71 222h75l-70 -222h210l-23 -72h-212l-66 -216h226l-24 -75h-228l-70 -219h-76l70 219h-193l-74 -219h-74l71 219h-222l25 75h219l70 216h-239l23 72h240l70 222h76z" />
    <glyph glyph-name="dollar" unicode="$" horiz-adv-x="950" 
d="M618 927q9 6 14 10q15 14 31 33t20.5 33.5t-8.5 30.5q-12 14 -43 25zM462 1043l-22 -10q-41 -23 -73.5 -66.5t-55 -98.5t-15 -91t39 -55.5t69.5 -15.5q11 1 24 2zM534 114q7 2 13 6q33 16 66.5 46.5t55 58.5t41.5 70.5t34.5 90.5t4.5 107t-52.5 87.5t-91.5 27.5
q-10 -1 -20 -1zM428 97q22 0 44 2h4l52 501q-16 -2 -33 -5q-10 -2 -19 -3zM465 -2q-24 -3 -47 -2l-6 -66l-57 7l6 64q-32 5 -63 14q-44 12 -72.5 33.5t-55 43.5t-41.5 46t-25 67t-2 72t34.5 64t60 59t74.5 41q34 14 136 30l10 111q-10 -1 -18 -2q-37 -5 -83 2t-79 33
t-49 63.5t-20.5 71.5t8.5 92t37.5 104t63.5 81.5t70.5 56t84.5 42.5q19 7 39 13l7 72l57 -7l-5 -56q6 0 12 1q23 0 44 -1l6 62l55 -6l-7 -64q39 -10 68 -31t38 -43t13 -47.5t-16.5 -51.5t-49.5 -43q-20 -13 -77 -18l-18 -172q44 4 88 -8q48 -13 81.5 -32t58 -49.5t40 -69
t12.5 -90.5t-15 -104.5t-31.5 -94.5t-46.5 -82.5t-62 -77.5t-73 -63t-79 -41q-23 -9 -48 -15l-8 -76l-56 6zM542 727l35 342q-22 1 -47 -4q-4 -1 -9 -2l-33 -345h2q25 5 52 9zM405 451q-87 -54 -103 -70q-20 -20 -40 -47.5t-29 -58t6 -59t32.5 -53t47.5 -42.5q22 -14 52 -19
z" />
    <glyph glyph-name="percent" unicode="%" horiz-adv-x="769" 
d="M374 1096q-35 11 -74.5 -17t-60.5 -79q-20 -50 -8 -94t48 -54q36 -12 75.5 16t60.5 80q20 51 8.5 94t-49.5 54zM561 282q-34 10 -73.5 -18t-60.5 -79q-20 -50 -8 -94t48 -54q36 -11 75.5 17t61.5 80q18 50 6.5 93.5t-49.5 54.5zM552 6q-53 -39 -97 -60
q-70 -32 -115.5 -45.5t-106.5 -21.5t-102.5 2.5t-58.5 41.5t-14 106q27 85 53.5 147.5t79 163t101.5 182t133.5 207.5t297.5 356q-54 -17 -86 -24q-54 -11 -139 -17q12 -31 7 -69q-7 -69 -68 -118q-60 -50 -134.5 -50.5t-121.5 48.5q-46 47 -38 116.5t68 117.5
q59 51 133.5 51t123.5 -49h1q114 8 167 24q64 18 111.5 34t255.5 112q-436 -455 -543.5 -612t-179 -290.5t-108 -239.5t-22 -140.5t46 -41.5t86.5 -1.5t136 33.5q34 12 73 29q-73 0 -119 46q-47 48 -37.5 116.5t67.5 118.5q60 47 133.5 47.5t120.5 -46.5q46 -48 37.5 -116
t-66.5 -117q-35 -29 -76 -41z" />
    <glyph glyph-name="ampersand" unicode="&#x26;" horiz-adv-x="1047" 
d="M419 760q24 13 30 17q11 6 15.5 18t3.5 25.5t-7 19t-18 7t-19.5 -6t-16 -18t-2.5 -25t10 -25.5q1 -4 4 -12zM361 732q-8 28 -12 45t0.5 35.5t11.5 39t32 34.5t55 10.5t49.5 -21.5t22 -38.5t0 -46t-25.5 -43.5q-11 -10 -51 -39q27 -65 58.5 -108t54 -72.5t41.5 -50.5
t45 -43.5t81 -13.5q-18 -82 -92 -102q-58 45 -78 72t-46.5 61t-44 68t-35.5 66t-39 90q-95 -34 -139 -79.5t-69 -104t-16.5 -132.5t37.5 -122.5t79 -84t119 -49t141.5 2.5t154.5 75.5t121 157.5q33 -103 70.5 -158t120.5 -98l-77 -101q-110 84 -149 185q-83 -99 -181 -142.5
t-201 -33.5t-170 47.5t-117 118t-59.5 152.5t8.5 135.5t55.5 113t78 83.5t74.5 50t92 41z" />
    <glyph glyph-name="quotesingle" unicode="'" horiz-adv-x="74" 
d="M65 923l-60 -40l39 251l54 44q91 42 70 -43z" />
    <glyph glyph-name="parenleft" unicode="(" horiz-adv-x="501" 
d="M71 515q27 206 104 340t172 209t210 79q-140 -112 -189.5 -188t-89.5 -169.5t-60 -152.5t-38 -173t-12.5 -199t17.5 -175.5t32.5 -147t95.5 -168.5l-89 -144q-100 200 -128.5 325.5t-40 241.5t15.5 322z" />
    <glyph glyph-name="parenright" unicode=")" horiz-adv-x="501" 
d="M435 247q-26 -206 -91 -314.5t-140.5 -182.5t-205.5 -124q105 106 158 184.5t83.5 153t51.5 149.5t39 189.5t12 199t-17 175t-30.5 147t-92.5 169.5l86 143q96 -200 123.5 -325.5t38.5 -241.5t-15 -322z" />
    <glyph glyph-name="asterisk" unicode="*" horiz-adv-x="773" 
d="M335 556q1 67 16 179l179 96q-115 -197 -127 -271q-3 -13 -4 -25h2q62 42 193 108l136 -99q-188 -11 -260 -43q-3 -1 -6 -3q59 -31 161 -99l5 -152q-124 148 -181 191q-20 14 -43 27q-3 -3 -4 -5q2 -28 12 -57q24 -85 66 -175l-128 -79q11 139 -2 223q-5 18 -6 37
q-5 -4 -8 -8q-60 -68 -107 -162l-174 79q149 58 217 118q32 28 64 53v4q-14 3 -28 7q-84 18 -190 22l-28 177q143 -108 222 -135q11 -5 23 -8z" />
    <glyph glyph-name="plus" unicode="+" 
d="M431 407h-334v140h334v334h140v-334h333l1 -1v-139h-334v-333l-1 -1h-139v334z" />
    <glyph glyph-name="comma" unicode="," horiz-adv-x="300" 
d="M146 143q35 0 70.5 -37t35.5 -86q0 -62 -56.5 -129t-110.5 -67v24q58 25 69 108q0 68 -102 92v24z" />
    <glyph glyph-name="hyphen" unicode="-" horiz-adv-x="701" 
d="M604 535q-41 -49 -58 -106l-456 1q52 51 51 108z" />
    <glyph glyph-name="hyphen" unicode="&#xad;" horiz-adv-x="701" 
d="M604 535q-41 -49 -58 -106l-456 1q52 51 51 108z" />
    <glyph glyph-name="period" unicode="." horiz-adv-x="300" 
d="M71 123l61 62q11 11 21 11t24 -12l59 -64q9 -12 9 -22q0 -11 -10 -23l-60 -65q-15 -15 -22 -15q-11 0 -21 10l-66 76q-7 9 -7 19q0 11 12 23z" />
    <glyph glyph-name="slash" unicode="/" horiz-adv-x="837" 
d="M901 1283q-303 -442 -414 -650.5t-185 -387t-174 -479.5l-130 -70q215 563 288.5 720.5t163 330.5t260.5 461z" />
    <glyph glyph-name="zero" unicode="0" horiz-adv-x="1022" 
d="M286 579q-28 -127 -20.5 -246t50.5 -190q40 -65 95 -76q6 -1 13 -1q62 -8 133.5 50t129.5 169q37 72 61 152q13 42 23 88q27 127 20.5 248.5t-51.5 189.5q-41 65 -97 75q-4 1 -9 1q-59 8 -131.5 -48.5t-130.5 -169.5q-38 -73 -63 -154q-14 -42 -23 -88zM690 1095
q98 -20 169 -110t83.5 -232t-32.5 -285q-43 -143 -133 -262.5t-205 -173.5t-215 -32q-102 20 -171 111t-81 232t32 284q43 142 135 263t206.5 173.5t211.5 31.5z" />
    <glyph glyph-name="one" unicode="1" horiz-adv-x="474" 
d="M124 843q61 43 98.5 66.5t136.5 107.5l100 88l-186 -1091l-213 -103q89 149 125 297l111 685q-46 -25 -73 -33t-99 -17z" />
    <glyph glyph-name="two" unicode="2" horiz-adv-x="1056" 
d="M207 1q-2 0 -3 -1l-108 1q573 361 672 625q46 124 28 202.5t-60.5 121t-96 57t-117 5.5t-178.5 -71l94 116q128 50 222.5 39t171 -62t115.5 -163t3.5 -219t-112 -204t-430.5 -343h354q60 -7 151 37q-47 -89 -74.5 -107t-56.5 -27.5t-72 -6.5h-503z" />
    <glyph glyph-name="three" unicode="3" horiz-adv-x="965" 
d="M493.5 99q80.5 30 133.5 82t73 101t30 96.5t-36 116t-282 83.5l137 102q45 38 73 66t43.5 69.5t8 86t-32 70t-62.5 41.5t-87 7.5t-90 -27t-139 -94.5l55 118q102 72 193.5 79.5t147 -15t96 -61.5t52 -97.5t-14 -108t-59.5 -81t-112 -88.5q146 -20 198 -70t67.5 -117.5
t-19 -167t-143.5 -180t-216 -106t-177.5 -14t-114.5 31t-76.5 51t-43.5 88.5l139 88q-20 -78 17.5 -121.5t99 -51t142 22.5z" />
    <glyph glyph-name="four" unicode="4" horiz-adv-x="1150" 
d="M96 178q155 230 181 289t56 126t49 132.5t28.5 124t-39.5 138.5l176 120q36 -105 31 -170.5t-30 -146t-59.5 -157.5t-56.5 -118t-88 -145q108 36 175.5 56t127 33t168.5 19q13 65 48.5 106.5t140.5 85.5q-50 -119 -72 -188q83 -2 192 -22l-102 -144q-68 23 -123 27
q-6 -46 -11.5 -83t-12.5 -88t-33 -120t-138 -136q45 108 54.5 205t15 132.5t14.5 94.5q-118 -5 -160 -11.5t-112.5 -19.5t-157 -38.5t-262.5 -101.5z" />
    <glyph glyph-name="five" unicode="5" horiz-adv-x="1033" 
d="M519 980l295 42q88 20 122 121q-65 -30 -121 -36l-385 -52l-187 -376q105 29 145 38t83 14.5t77.5 -2t76.5 -26t71 -47.5t47 -62.5t25 -72.5t1.5 -91t-23.5 -100.5t-40 -80t-49.5 -59.5t-68 -54.5t-73 -40t-69 -18.5t-73 -1t-61 10.5t-48.5 19.5t-48 29t-28.5 36.5
t40.5 84.5q-142 -80 -144 -119.5t19.5 -63t51.5 -35.5t67.5 -24t87.5 -18t109.5 -0.5t108 17t100.5 38.5t100 69t79.5 79t59.5 83t45 120.5t2 154t-62.5 133.5t-106.5 82.5t-110.5 38t-91.5 9t-109 -12.5z" />
    <glyph glyph-name="six" unicode="6" horiz-adv-x="1071" 
d="M678 857.5q-81 12.5 -136 2t-101.5 -28t-103.5 -48.5q54 105 83.5 142.5t69.5 76.5t95.5 70t142 46t151.5 141q-221 -57 -297.5 -100t-122.5 -75t-113.5 -107t-114.5 -155t-72 -155t-34.5 -128.5t-11 -90.5t2 -82t13 -89.5t23 -74.5t37.5 -69.5t75 -76t105.5 -49.5
t99 -10t86 11.5t77 24t72.5 41t74.5 61.5t68 75.5t51.5 81t38 93t27 99.5t4 95.5t-21 86.5t-45.5 75t-86 70t-136.5 46.5zM812.5 633.5q8.5 -31.5 12 -60.5t1.5 -61.5t-12.5 -77t-22 -79t-35 -72t-46 -70t-53 -60t-29.5 -27.5q-64 -40 -110.5 -48.5t-79.5 -3.5t-56 18.5
t-48 37t-45 59.5t-32 81.5t-17 97t5.5 105t25.5 91t39 74t61.5 71t91 60t111.5 25t102.5 -15.5t69 -39t41.5 -49t25.5 -56.5z" />
    <glyph glyph-name="seven" unicode="7" horiz-adv-x="1018" 
d="M762 966q-134 -32 -220 -40q-128 -12 -224 -2.5t-222 35.5l149 140q-18 -59 77 -66.5t164.5 -10t181 10t335.5 72.5l-60 -63q-46 -71 -93 -150q-56 -97 -117 -247q2 -1 4 -1q32 -4 126 -14l-79 -86q-41 19 -80 28q-52 -139 -88 -290q-42 -179 -26 -274l-142 -109
q44 242 69 365t73 267q6 28 15 52h-1q-49 -1 -123.5 -9t-169.5 -25q113 56 155.5 69.5t94.5 22.5q34 8 67 9q27 79 55 151q32 84 79 165z" />
    <glyph glyph-name="eight" unicode="8" horiz-adv-x="931" 
d="M267.5 11.5q30.5 -9.5 71 -13.5t83 0.5t90.5 19.5t95.5 48.5t77.5 67t50 72.5t32.5 96.5t4.5 105t-25 81t-43 62t-102 68.5q63 25 91 45t56 47t48.5 61.5t35 74.5t9 78t-23.5 71t-50 58t-70 35.5t-75 10t-78 -12t-78.5 -31t-71.5 -51t-53.5 -65t-27 -70t-5 -72t14.5 -64
t29.5 -51t66.5 -58.5q-94 -22 -143.5 -48.5t-86.5 -62.5t-65.5 -82t-37 -86t-8.5 -75.5t6.5 -61.5t16.5 -51t41 -61.5t62.5 -56t62 -29zM264.5 153.5q-13.5 22.5 -21.5 56t-13 69.5t4.5 73.5t22.5 63t26.5 43.5t41 40.5t47 32.5t39.5 19t37 12.5t43.5 3t43 -10t35 -27.5
t33.5 -45.5t20.5 -64.5t2 -74.5t-8.5 -61.5t-18.5 -54t-33.5 -57t-42.5 -45.5t-52 -33.5t-62.5 -18.5t-63 9.5t-48.5 30t-32 39.5zM714.5 907.5q0.5 -40.5 -10.5 -80t-26 -67.5t-36 -49t-46.5 -35t-40 -18.5t-38 12t-45.5 54.5t-23.5 75t5 69.5t28.5 67.5t45 57.5t58.5 32
t66.5 -4.5t46.5 -43.5t16 -70z" />
    <glyph glyph-name="nine" unicode="9" 
d="M374 279.5q75 -11.5 125.5 -1.5t93.5 26.5t97 45.5q-51 -100 -78 -135t-64.5 -72.5t-88.5 -67t-131.5 -43.5t-140.5 -134q205 55 276 95.5t113.5 71t105 102t106 147t66.5 147t32 122t10.5 86t-1.5 78t-12.5 85t-21.5 71t-34.5 65.5t-69.5 72t-97.5 47.5t-91.5 9.5
t-79.5 -11t-71.5 -22.5t-67.5 -39t-69 -58.5t-63 -71.5t-48 -77t-35 -88.5t-25 -94.5t-4 -91t19.5 -82t42.5 -70.5t80 -67t126.5 -44.5zM249.5 493q-7.5 30 -11.5 57t-1.5 58t12 73.5t20.5 75t32.5 68t42.5 66.5t49 57.5t27 26.5q59 38 102.5 46t73.5 3t51.5 -17.5t44.5 -35
t41.5 -57t30 -77.5t16 -92t-5.5 -100t-23.5 -86t-36 -70t-57.5 -68t-84 -57t-103.5 -23.5t-95.5 14.5t-63.5 37t-38 47t-23 54z" />
    <glyph glyph-name="colon" unicode=":" horiz-adv-x="342" 
d="M66 125l62 64q11 10 22 10q10 0 23 -12l61 -65q9 -12 9 -22q0 -11 -11 -23l-60 -67q-15 -15 -22 -15q-12 0 -22 11l-66 76q-8 10 -8 20q0 11 12 23zM106 664l64 66q12 11 23 11t25 -13l63 -68q9 -12 9 -22q0 -12 -11 -25l-63 -69q-16 -16 -23 -16q-12 0 -23 11l-69 80
q-8 10 -8 20q0 12 13 25z" />
    <glyph glyph-name="semicolon" unicode=";" horiz-adv-x="349" 
d="M139 669l58 59q10 10 20 10q9 0 22 -11l56 -60q8 -12 8 -21q0 -10 -10 -21l-56 -62q-14 -14 -20 -14q-11 0 -20 10l-62 71q-7 9 -7 18q0 10 11 21zM154 141q37 0 74.5 -34t37.5 -79q0 -57 -59.5 -118t-116.5 -61v22q61 23 73 99q0 62 -108 84v22z" />
    <glyph glyph-name="semicolon" unicode="&#x37e;" horiz-adv-x="349" 
d="M139 669l58 59q10 10 20 10q9 0 22 -11l56 -60q8 -12 8 -21q0 -10 -10 -21l-56 -62q-14 -14 -20 -14q-11 0 -20 10l-62 71q-7 9 -7 18q0 10 11 21zM154 141q37 0 74.5 -34t37.5 -79q0 -57 -59.5 -118t-116.5 -61v22q61 23 73 99q0 62 -108 84v22z" />
    <glyph glyph-name="less" unicode="&#x3c;" horiz-adv-x="799" 
d="M296 476q138 -61 201 -102t211 -139q-47 -28 -84 -102q-116 116 -176 155.5t-132 81t-151 74.5q-76 31 -58 32q211 123 311 191q101 68 308 255q-67 -106 -59 -190q-105 -77 -171 -127q-64 -49 -200 -129z" />
    <glyph glyph-name="equal" unicode="=" horiz-adv-x="1101" 
d="M323 572l692 1l-143 -105h-707zM227 344l699 1l-126 -109h-707z" />
    <glyph glyph-name="greater" unicode="&#x3e;" horiz-adv-x="799" 
d="M304 605q-66 50 -171 127q8 84 -59 190q207 -187 308 -255q100 -68 311 -191q18 -1 -58 -32q-79 -33 -151 -74.5t-132 -81t-176 -155.5q-37 74 -84 102q148 98 211 139t201 102q-136 80 -200 129z" />
    <glyph glyph-name="question" unicode="?" horiz-adv-x="652" 
d="M108 1208q74 59 140.5 70t133.5 -3t133.5 -64t75.5 -101.5t-1.5 -97.5t-35 -93t-70.5 -97t-91 -100t-79.5 -92.5t-55.5 -92.5t-10 -91.5t83 -76.5l-98 -61q-67 84 -72 130t8.5 102.5t133.5 230t132.5 221.5t5 90t-59 78t-97 39t-79 -2.5t-154.5 -86.5zM210 115l55 58
q10 8 20 8q9 0 21 -10l54 -58q8 -11 8 -20q0 -10 -10 -21l-53 -59q-14 -14 -20 -14q-11 0 -20 10l-59 68q-7 9 -7 18q0 10 11 20z" />
    <glyph glyph-name="at" unicode="@" horiz-adv-x="954" 
d="M606 566q-40 0 -81 -42q-60 -61 -102 -166q-31 -76 -31 -123q0 -33 18.5 -54t42.5 -21q30 0 64 23.5t71 72t54 96.5q30 85 30 138q0 35 -19.5 55.5t-46.5 20.5zM792 588l-62 -212q-35 -119 -42 -150.5t-7 -50.5q0 -17 11 -29t28 -12q39 0 93.5 39t93 126t38.5 181
q0 91 -43.5 168t-123.5 118t-176 41q-123 0 -228 -65t-166 -187t-61 -254q0 -121 53.5 -221t151 -151t210.5 -51q139 0 252 74.5t174 218.5h31q-48 -145 -173.5 -235.5t-286.5 -90.5q-126 0 -234 60t-168 169.5t-60 240.5q0 140 65.5 261.5t184 189.5t251.5 68
q110 0 198.5 -45.5t134.5 -132.5t46 -185q0 -97 -43 -192.5t-110 -139t-140 -43.5q-40 0 -60.5 19t-20.5 54q0 30 10 78q-79 -95 -126 -123t-83 -28q-38 0 -67 33.5t-29 89.5q0 77 50 172.5t133 155.5q61 44 109 44q35 0 59 -18.5t32 -54.5l18 58z" />
    <glyph glyph-name="A" unicode="A" horiz-adv-x="1071" 
d="M395 660q76 152 126 238t97.5 138t129.5 106q109 -94 139.5 -150t57.5 -143.5t40 -179.5q85 -17 196 -31l-97 -75l-89 20q5 -139 -5.5 -216.5t-40.5 -174.5t-89 -206q-39 19 -173 -34q108 184 134.5 246.5t42 121t19 108t3.5 173.5q-86 16 -131.5 17t-98 0t-149.5 -24
q-69 -117 -96 -163t-76 -108t-109 -128t-231 -213q-78 -4 -236 -80q210 178 271.5 240.5t113.5 122t98 118t120 183.5q-92 -24 -132 -40t-167 -72l110 110q92 57 222 96zM662.5 920.5q-25.5 -40.5 -52 -95.5t-64.5 -133q61 7 109.5 10.5t107.5 0t112 -15.5
q-11 59 -24.5 114.5t-33 98t-80.5 108.5q-49 -47 -74.5 -87.5z" />
    <glyph glyph-name="B" unicode="B" horiz-adv-x="1162" 
d="M487 582q-6 -66 -26 -153t-44 -166t-73 -162q95 -49 148.5 -46.5t106.5 11t97 25.5t99.5 51t92.5 75t55 84t23.5 76t1 73t-16.5 67.5t-39.5 48.5t-58 36.5t-66 26t-68.5 14.5q-55 -14 -76 -19.5t-56 -14t-100 -27.5zM501 1020q12 -36 13.5 -82t1.5 -96.5t-18 -141.5
q62 5 110 12.5t92.5 26t71 39.5t44 43t31 43t24 55.5t-6 63t-38.5 45.5t-61 26t-77 6t-81.5 -11.5t-105.5 -28.5zM222 12l-125 -21q129 139 188.5 300t87.5 323.5t28 241.5t-6 144l-74 90q148 34 240.5 46.5t197.5 6.5t168.5 -63.5t69 -124t-18.5 -112t-53.5 -75.5
t-112.5 -78q78 -16 139 -55q67 -46 103 -93.5t39.5 -109t-19 -135.5t-82 -140.5t-151 -111t-195 -62t-186.5 -17.5t-238 46z" />
    <glyph glyph-name="C" unicode="C" horiz-adv-x="1101" 
d="M995 817q205 127 173.5 162t-68 56t-77.5 39.5t-87.5 35.5t-125.5 26.5t-145 -1t-128.5 -27t-131 -55t-131.5 -98.5t-104.5 -139t-57 -163t-6.5 -169.5t31 -151.5t65.5 -127.5t101.5 -107t121.5 -71t140 -34.5t135 4.5t119.5 56t154 155.5q-183 -112 -246.5 -124.5
t-119.5 -7t-99 26t-102 66t-87 96.5t-47.5 119t-20 136.5t18 136t46 117.5t64 97t81.5 84t104.5 66t119.5 39.5t130.5 4.5t113.5 -28.5t74 -43.5t50 -39.5t8 -32t-67 -104.5z" />
    <glyph glyph-name="D" unicode="D" horiz-adv-x="1302" 
d="M186 59h-1l-84 -89q173 13 309.5 38t250.5 71t206 105.5t173.5 129t146.5 195.5t51 254t-67 197.5t-135.5 112.5t-179.5 58.5t-193.5 10t-368.5 -75.5l-98 -123q65 16 120 29zM587 1029q69 7 140 2t127 -22.5t102.5 -55t74 -96t37 -133t-27 -164.5t-113.5 -177
t-167 -141.5t-203 -96.5q-78 -30 -224 -59l124 919q95 21 130 24z" />
    <glyph glyph-name="E" unicode="E" horiz-adv-x="1199" 
d="M258 72q214 11 299 6.5t164 -15.5t161 -29.5t277 -80.5l-148 -117q-172 87 -236.5 108t-138.5 32.5t-159.5 15.5t-162.5 -1t-276 -45q116 108 187.5 219t120 241.5t64 233.5t19.5 156t-5.5 100.5t-26.5 113.5q-43 -15 -86 -28l106 120q199 49 296.5 64t198 29t264.5 -12
l-130 -97q-92 21 -148.5 17t-133 -14.5t-132.5 -20.5t-104 -22q19 -43 29 -90t10.5 -110.5t-17.5 -166.5v-1q46 -7 92 -9.5t111.5 0.5t137 17.5t137.5 38.5q-72 -64 -102 -85t-62.5 -36.5t-89.5 -23.5t-108.5 -7.5t-132.5 0.5q-24 -85 -39.5 -124.5t-48 -102t-74 -122
t-60 -86t-53.5 -66.5z" />
    <glyph glyph-name="F" unicode="F" horiz-adv-x="901" 
d="M829 1076q-59 18 -97 20q-53 3 -130.5 -8t-254.5 -61q2 -78 6 -124.5t7.5 -98.5t1.5 -138q72 22 121.5 30.5t113.5 12.5t207 -21l-97 -107q-82 28 -127.5 35.5t-94.5 0t-124 -29.5q-9 -103 -17.5 -171.5t-27 -152t-57.5 -251.5l-193 -129q84 167 105.5 252.5t38 198.5
t19.5 225q-43 -10 -114 -52q51 87 118 116q-4 143 -8.5 201.5t-11.5 92t-17 68.5l-106 -37l87 111q225 80 333 111t212 39t292 -34l-90 -74q-53 -88 -80 -106q-27 -19 -88 -37q43 41 55 64q10 18 18 54z" />
    <glyph glyph-name="G" unicode="G" horiz-adv-x="1200" 
d="M904 -68q-12 -40 -37.5 -76.5t-68.5 -66.5t-96 -37t-106 1.5t-91 19t-59 28t-21.5 39t10.5 41.5t41 83q-87 -63 -105 -87.5t-28.5 -50t-0.5 -52.5t68.5 -65t149 -61.5t160.5 -10.5t118.5 40.5t81 68t53.5 78t33.5 78t25.5 92t25.5 91t45.5 153.5q-157 -109 -209 -133.5
t-123 -45.5t-142 -1.5t-112 43t-79 58.5t-72.5 81t-55 105.5t-35 141t2.5 161.5t43 126t62.5 99t99 97.5t131 69.5t149.5 33t156.5 0t123 -31t81.5 -45t51.5 -40.5t9 -32t-52.5 -76.5q211 100 176.5 135.5t-76 57.5t-81 42.5t-96 36t-145.5 27.5t-171 3t-153.5 -28t-159 -67
t-149.5 -103t-105 -132t-60.5 -173.5t-4.5 -186.5t41.5 -148.5t77.5 -122t113.5 -109t130.5 -73t133 -36t137.5 0.5t192.5 73q-17 -73 -29 -113z" />
    <glyph glyph-name="H" unicode="H" horiz-adv-x="1094" 
d="M275 672q-81 -34 -179 -101q151 45 254 69q-7 -62 -18 -133q-19 -100 -43 -175.5t-55 -141.5t-168 -259l154 126q88 86 118 135t60.5 114t52 139t31.5 150q5 36 9 72q51 7 94 11q62 5 162 3q-13 -74 -19 -157q-9 -134 4.5 -246.5t54.5 -281.5q100 22 130 42.5t103 87.5
q-118 -50 -164 -35q-18 108 -18 182t4 165.5t22 211.5q1 14 4 27q118 -9 80 -50l104 84q-87 24 -171 35q17 75 46 154q45 130 208 368l-136 -72q-98 -109 -151 -212t-82 -214q-2 -8 -4 -15q-110 3 -189 -7q-41 -5 -76 -11q1 6 1 12q5 78 1 149.5t-15.5 127t-49.5 93.5
q-42 43 -190 -30q80 -21 89 -58.5t14.5 -90t8.5 -109.5q2 -54 -2 -129q-38 -13 -79 -30z" />
    <glyph glyph-name="I" unicode="I" horiz-adv-x="599" 
d="M418 458q25 120 59 285t98 325q66 18 124 42l115 111q-105 -34 -150 -47.5t-98.5 -22.5t-92.5 -9t-116 9l-80 -68q79 -20 154 -21q-25 -161 -59.5 -292t-73 -287.5t-68.5 -252.5t-47 -149q-100 -31 -178 -67l-92 -99q132 38 193.5 50.5t122 23t118 12.5t127.5 -6l84 68
q-119 35 -207 28q42 247 67 367z" />
    <glyph glyph-name="J" unicode="J" horiz-adv-x="969" 
d="M983 1118.5q-64 -39.5 -122.5 -75t-128 -77.5t-132.5 -79t-113 -55q4 17 17.5 36.5t-14.5 -6t-49 -48.5t-33 -67.5t58 -23.5t126.5 54.5t112.5 79.5t166 122q-49 -75 -69 -136t-51.5 -241.5t-57 -311.5t-54 -251t-130.5 -258.5t-173 -177t-91.5 -1.5t-49 86.5t-48.5 94.5
t2 80t60.5 85.5t252.5 265.5q-184 -100 -234 -135.5t-107.5 -81t-86 -92.5t-37 -103t6.5 -99.5t67 -113.5t84 -113t-1 -69.5t68 16t179.5 93.5t133 100t115 125.5t93.5 179.5t56 229t47 298t48 295t51.5 194t65.5 123t162 172l-3 -2q-123 -72 -187 -111.5z" />
    <glyph glyph-name="K" unicode="K" horiz-adv-x="1101" 
d="M329 644q-31 6 -56.5 2.5t-48.5 -8t-42.5 -11.5t-42.5 -20q-17 -11 -44 -38h-11q4 -3 7 -6q-3 -4 -7 -8l14 4q32 -22 56 -29q27 -8 65.5 -19.5t91.5 -11.5h12q-11 -52 -27 -117q-28 -99 -56.5 -158.5t-62 -120.5t-121.5 -189l175 82q24 42 48 79.5t58 99.5t63 134.5
t50 146.5q7 30 15 61q21 4 42 9q16 -11 38 -28q41 -34 72 -74t64 -91.5t69 -127.5t74.5 -136t72 -108t77 -92t97.5 -83t103.5 -62.5t118 -31t129 4.5t117 43t108 79.5t150.5 184.5q-160 -117 -210 -139.5t-95.5 -43t-101.5 -23t-119.5 17.5t-116 60.5t-95.5 86.5t-79 112
t-72 137t-82.5 136t-89.5 109t-105 77q-21 10 -38 18q43 16 88 37q75 35 146.5 94.5t113.5 121t64.5 110.5t31 96.5t11 82.5t-3 70t-38.5 52t-83.5 1t-107.5 -82q66 13 82 7.5t16.5 -29.5t-5.5 -51.5t-15 -64.5t-32 -80.5t-50.5 -86t-74.5 -90t-100 -78.5t-132 -57
q-3 -2 -8 -4q-6 3 -12 5q14 71 18 134q6 90 3 154t-36 129q-142 132 -295 -87q136 70 161.5 5t27 -116t-0.5 -97.5t-5 -86.5q-20 1 -28 3zM333 551q-23 -4 -47 -4q-43 0 -89 22q8 3 16 7q29 14 58 20t69 1q-3 -23 -7 -46z" />
    <glyph glyph-name="L" unicode="L" horiz-adv-x="800" 
d="M463.5 32q33.5 -14 79 -46.5t88 -71t116.5 -89.5t158.5 -78t168.5 -32.5t151.5 12t117 42.5t88 61t66.5 75.5t67 167.5q-66 -91 -103 -127.5t-81.5 -62.5t-83.5 -38.5t-89.5 -19.5t-111 -5.5t-130.5 21t-118.5 46.5t-114 69t-118 70t-83 42.5t-103.5 28.5
q89 189 117.5 279t48 182.5t34 183t18 168.5t-7.5 164t-36 141q-88 58 -204 -94q90 47 96.5 -3.5t6.5 -116.5t-3.5 -138t-16 -173.5t-38.5 -224t-55.5 -213t-57.5 -153.5q-46 -1 -75.5 -10t-57 -23.5t-46 -29.5t-52.5 -49q36 -30 49 -36t35 -10.5t41.5 -5t45.5 6.5t48 20
t34.5 26t24.5 27.5t27 34.5q26 -4 59.5 -18zM234.5 -7q-12.5 -7 -24.5 -8t-32 11q19 28 42.5 40.5t61.5 14.5q-11 -24 -23 -37.5t-24.5 -20.5z" />
    <glyph glyph-name="M" unicode="M" horiz-adv-x="1672" 
d="M678 914q1 -98 -4 -144q-7 -67 -26 -151.5t-64 -184.5t-107.5 -197t-133 -168.5t-164 -126t-271.5 -90.5q115 66 165 104.5t113 104.5t112 137t112 193.5t101.5 257.5t54.5 224.5t18 137.5q1 39 5 107l-3 33q3 -2 5 -5v6l7 -14q76 -78 115 -132q44 -59 91 -129.5
t78 -156.5t64 -200t39 -213q2 -36 3 -63q6 9 13 19q44 62 82.5 146t72 189.5t55 222t25.5 174.5t13 159l2 -5q144 -115 198 -200q53 -84 95.5 -169t52.5 -194t-12 -214.5t-73 -201t-132 -183.5l-144 -38q95 53 146 153.5t71 167.5t30 140.5t6.5 141.5t-25 148.5t-52.5 138
t-57 103.5q-21 34 -46 68q8 -79 6 -140q-4 -77 -21 -173t-54.5 -194t-70 -161t-78 -118t-102 -101.5t-104.5 -66.5l9 73v15q-3 67 -14 149.5t-34.5 176.5t-50.5 175.5t-74 179.5q-18 39 -43 89z" />
    <glyph glyph-name="N" unicode="N" horiz-adv-x="1060" 
d="M421 840q-23 -165 -42 -245.5t-51 -179.5t-77.5 -193.5t-96 -166t-119 -126.5t-195.5 -93q83 67 119 105.5t81.5 103.5t81 135t80.5 191.5t73.5 254t39.5 219.5t13 134.5t7 152.5q87 -84 132.5 -142.5t96.5 -129t99.5 -178.5t89.5 -267q58 237 110.5 366t130.5 265
t249 206q-136 -198 -200 -335.5t-110 -277t-82 -294t-49 -340.5l-130 -82q28 120 30.5 182.5t-15 148.5t-48.5 183.5t-69.5 177.5t-148.5 225z" />
    <glyph glyph-name="O" unicode="O" horiz-adv-x="1200" 
d="M966 1079.5q-42 36.5 -146.5 55.5t-190 3t-160 -51.5t-113 -66.5t-95 -92.5t-92 -139t-54.5 -169t-9 -182t25 -145.5t52.5 -111t104 -106t139 -67.5t148.5 -4t123 37t94 55t87.5 72t83.5 91.5t70.5 100.5t49.5 100.5t35 103t21 116.5t2.5 108.5t-18.5 82t-35.5 79
t-80.5 94q1 0 -41 36.5zM993 861q13 -34 17.5 -84.5t5.5 -93.5t-12 -99t-31 -108.5t-43.5 -95.5t-58.5 -86.5t-69.5 -82t-84 -68.5t-93.5 -45.5t-97.5 -8t-83 26t-63.5 51.5t-60 73t-50 108.5t-25.5 140t11.5 144.5t38 123.5t55 101t81.5 98t116 86t147.5 42.5t144 -32
q57 -36 81.5 -62t42.5 -60.5t31 -68.5z" />
    <glyph glyph-name="P" unicode="P" horiz-adv-x="1048" 
d="M351 1029q19 -91 29 -147t15 -112.5t2 -113.5t-14 -139q69 -7 115 2.5t83 22t79 37t70 43t57.5 50t45 59t24 61t1.5 66.5t-17.5 58t-26.5 48t-45 44.5t-71.5 39t-109 20t-110.5 -3t-127 -35.5zM360 398q-39 -129 -56.5 -176t-30.5 -87.5t-58 -140.5l-159 -96
q65 130 102.5 242.5t62.5 231t35 216t5 154t-13.5 106.5t-33.5 132l-97 -27l67 103q80 26 121 41t114 35t145 25t156 -10t125 -39.5t73.5 -66.5t43 -84t14.5 -84.5t-10.5 -86.5t-33 -74.5t-40.5 -54.5t-56 -58.5t-78.5 -62t-103 -53.5t-119.5 -42t-175 -43z" />
    <glyph glyph-name="Q" unicode="Q" horiz-adv-x="1199" 
d="M814 1140.5q-92 13.5 -178.5 -3t-161 -52t-113 -66.5t-95.5 -89.5t-97.5 -128.5t-62.5 -166.5t-10 -185.5t33.5 -152.5t58.5 -119.5t104.5 -106t140 -67.5t141 -9.5t136.5 54q44 -62 82.5 -116.5t93 -102.5t138 -73t161 -16.5t138.5 46t109.5 87t137.5 212.5
q-135 -145 -165.5 -167t-72 -38t-81 -24t-82 -6t-86.5 15t-97 43t-88 60.5t-112 123.5q109 92 149.5 142t82 107t69 110t43.5 105.5t23 114t2 116t-21 102.5t-58 105.5t-106 95t-156 51zM482 194.5q34 10.5 78 -4.5t89 -78q-58 -26 -100.5 -25t-75.5 13.5t-70 53.5
q45 30 79 40.5zM1000 861q13 -35 17 -84.5t6 -92.5t-11 -99t-31.5 -108t-52 -101.5t-67.5 -88t-126 -121.5q-52 46 -87.5 67t-90.5 30t-96.5 -6t-103.5 -44q-60 70 -82.5 138t-26 140t12 144t38.5 122.5t55 100.5t81.5 97t121.5 83t152.5 39.5t153 -39.5t98.5 -92.5
t39 -84.5z" />
    <glyph glyph-name="R" unicode="R" 
d="M202 652.5q-31 -5.5 -69 -30t-88 -78.5q65 -36 87.5 -41t51.5 -17.5t82 -12.5q-11 -66 -30.5 -126t-39.5 -113t-47 -109t-170 -247l211 102q45 85 71.5 136.5t48.5 107t37.5 104t32.5 139.5q52 -1 72 1.5t74 11.5q70 -77 94.5 -132.5t53.5 -131.5t53 -134.5t65 -118.5
t85 -100t101.5 -70.5t113 -46.5t130 -16t127.5 10.5t96 29.5t84.5 46t73.5 64.5t53 73.5t54 126q-66 -79 -86.5 -99.5t-46.5 -42.5t-58.5 -43.5t-78 -35.5t-98.5 -22.5t-136 -3t-158.5 44t-125 108t-84.5 147t-67 146t-60 113.5t-39.5 68.5t-57.5 70.5q83 30 139.5 60.5
t100.5 66.5t69.5 70.5t45.5 64.5t28 68.5t4 68t-16 66t-45 64t-83.5 54.5t-139 42.5t-161.5 7.5t-131.5 -22t-153.5 -35l-94 -99l92 26q18 -18 27 -64.5t12.5 -92t-2 -103t-9.5 -108.5q-64 -8 -95 -13.5zM437.5 565.5q7.5 -4.5 21.5 -14.5q-24 -7 -35 -8t-28 0q2 18 7 41
q27 -14 34.5 -18.5zM508 1081q33 2 88 -1.5t93.5 -14t66 -24t45.5 -29.5t34 -35.5t26.5 -46t4.5 -59.5t-26.5 -76t-51.5 -73.5t-85 -65.5t-155 -76q-40 19 -61.5 30.5t-73.5 29.5q8 102 8.5 163.5t-9 131t-17.5 127.5q80 17 113 19zM212.5 555.5q-16.5 4.5 -63.5 21.5
q37 28 65 36t75 6q-5 -37 -13 -75q-47 7 -63.5 11.5z" />
    <glyph glyph-name="S" unicode="S" horiz-adv-x="950" 
d="M696.5 581.5q-42.5 28.5 -91.5 27t-109 -13t-97 -15.5t-83 3t-79 33t-49 63.5t-20.5 71.5t8.5 92t37.5 104t64 82t70.5 56.5t84 42t110.5 22.5t96.5 -8.5t69 -30.5t38.5 -43t13 -47.5t-16 -52t-49.5 -44t-132 -21.5q56 21 71 35t30.5 33t20 34t-9 30.5t-54 28t-90 3
t-90.5 -32t-73.5 -66.5t-54.5 -99t-15 -91t39 -55.5t69.5 -16t85 12.5t97.5 15t98.5 -7t82 -32t58 -49.5t40 -69t12.5 -91t-15 -105t-31.5 -94.5t-46.5 -82t-62.5 -77.5t-73 -63.5t-78.5 -41.5t-90.5 -22t-94.5 -1.5t-89 17t-72.5 33.5t-55 43.5t-41.5 46.5t-25 67.5t-2 72
t34.5 64t60 58.5t74 40.5t175.5 37q-124 -76 -143.5 -96.5t-40 -47.5t-29.5 -58t6 -59t33 -53t47 -43t70 -22t83.5 0t75.5 20.5t66.5 47.5t55 58.5t41 70t34.5 91t4.5 107.5t-53 87.5z" />
    <glyph glyph-name="T" unicode="T" horiz-adv-x="901" 
d="M801 1081.5q84 9.5 144.5 8.5t203.5 -30q-8 -43 -79 -124q137 41 184 137q14 42 93 72q-127 16 -230 31t-184.5 10.5t-191 -19.5t-166 -27.5t-114.5 -27t-99.5 -25.5t-84.5 -23t-66 -22t-113 -106q123 40 171 54t89 23t133 23q-62 -100 -97 -175q-41 -91 -86 -208
t-65.5 -223t-18 -177.5t22.5 -136.5t78 -123q86 15 172.5 51t161.5 131q-158 -56 -203.5 -58.5t-54.5 11t-23 80t0 167t55 244.5t79 242q33 85 104 191q101 20 185 29.5z" />
    <glyph glyph-name="U" unicode="U" horiz-adv-x="1362" 
d="M991 -8q112 21 145 41.5t113 85.5q-132 -50 -181 -34q-20 105 -20 177t5 160.5t23.5 204t68.5 241.5t168 311l-185 -61q-6 -43 -66.5 -154.5t-93 -220.5t-41.5 -238t5 -238q2 -12 3 -24q-68 -54 -109 -76q-62 -33 -115.5 -48t-127.5 -6t-136.5 50t-120.5 119.5t-82 170.5
t-13.5 207.5t53.5 247t176 269.5l-90 -35l-105 -38q-101 -190 -133.5 -297.5t-29 -228t34.5 -229t86 -173.5t90.5 -97t97 -54.5t108 -28.5t143.5 10t158 47q54 28 137 78q14 -64 34 -139z" />
    <glyph glyph-name="V" unicode="V" horiz-adv-x="1302" 
d="M461 -44q5 3 9 5l-2 -6l20 15q190 103 276 163q90 61 169.5 138.5t133 149.5t97.5 158t58.5 151t14.5 110t-6.5 90.5t-21.5 83.5t-41.5 71.5t-63 59.5t-78.5 39t-96.5 20t-92 4t-79.5 -14t-76.5 -26.5t-136.5 -82.5l130 34q78 19 126 21.5t84.5 -5t60.5 -18.5t51 -30
t44 -43t31 -51t22.5 -65t9 -89t-22 -134.5t-64 -158t-87.5 -136t-105 -121.5t-132 -109q-48 -34 -99 -57q3 22 3 38q0 41 -4.5 109.5t-21.5 142.5t-44 144t-59 139.5t-69 129.5t-72 103.5t-85 60.5q-55 20 -145 -105q77 15 102.5 -13.5t54.5 -72t57.5 -92t64 -122.5
t66.5 -168.5t46.5 -170.5t18.5 -129q3 -44 -26 -124z" />
    <glyph glyph-name="W" unicode="W" horiz-adv-x="1570" 
d="M1038.5 359q-11.5 64 -21.5 117t-23 104t-24.5 91.5t-39.5 103.5l-148 -100q-3 -91 -24 -161.5t-45.5 -138.5t-114.5 -189q-1 44 -5 104t-20.5 133.5t-44 143t-59.5 139.5t-69 130t-72.5 103.5t-84.5 60.5q-55 19 -146 -105q77 15 102.5 -13.5t54.5 -72t57.5 -92.5
t64 -122.5t67 -167.5t47 -170t18 -129.5t-23.5 -151.5q123 96 185.5 171.5t98.5 149t59.5 132t50.5 172.5q30 -120 44.5 -183t22 -141.5t4.5 -142t-35 -157.5q182 133 258.5 203.5t139 153.5t103 157t69 161t32 150t-3.5 105t-19.5 84.5t-33.5 76t-50.5 62t-68.5 47.5
t-80 26.5t-94 7.5t-88 -8.5t-73 -24t-68 -34.5t-116 -94l117 48q72 27 116.5 36t81 6.5t60 -9.5t52 -21.5t48 -35t37 -45t31 -59t21.5 -81.5t0.5 -128.5t-35 -157t-62.5 -139.5t-81.5 -128t-76 -86.5t-85.5 -60.5q5 106 -6.5 170z" />
    <glyph glyph-name="X" unicode="X" horiz-adv-x="1200" 
d="M301.5 627q-60.5 -24 -166.5 -85q200 30 236.5 34.5t118.5 11.5q-150 -152 -222.5 -242t-136.5 -180.5t-201 -333.5q152 125 222.5 210t130 158.5t116.5 140t147 162.5q49 -99 77.5 -154t68.5 -127.5t100.5 -144t113 -87.5t86 -5.5t51.5 24.5t84 93q-62 -33 -93.5 -37.5
t-61 15t-53 44t-47 57.5t-63 98.5t-70 129.5t-82.5 184q63 -4 105.5 -4t91.5 -28l137 114q-133 -17 -173 -13t-119 0q131 119 189.5 174t125 105.5t178.5 126.5q-8 -38 -48 -104q101 57 124.5 100.5t48.5 139.5q-123 -57 -218.5 -115t-172 -114t-157 -124.5t-168.5 -141.5
q-59 118 -86 168.5t-51.5 85t-60.5 60t-85.5 19t-104 -32.5t-122.5 -103q60 30 84.5 39.5t53.5 14.5t51 0.5t47.5 -24t47 -62t47.5 -92t57 -122.5q-117 -9 -177.5 -33z" />
    <glyph glyph-name="Y" unicode="Y" horiz-adv-x="1222" 
d="M577 403q-65 -16 -103 -13t-72 12.5t-54 38t-40.5 63.5t-40.5 85.5t-37 109.5t-17.5 122.5t6.5 120.5t55 214l-165 -120q-18 -189 -1.5 -267.5t37 -145t50.5 -132.5t88 -126t98.5 -76t75 -19t98.5 13q9 1 18 4q-16 -41 -30 -84q-59 -173 -92 -340t-59 -460
q128 13 192 47.5t152 160.5q-137 -74 -221 -74q21 156 47 261.5t67 234.5t103 287q6 16 13 32q72 36 161 104q114 88 181.5 183t122.5 196t142 303l-19 -15q13 11 25 21q-235 -94 -340 -186t-172.5 -182t-155.5 -245q-31 -55 -59 -111q-26 -9 -54 -17zM1041 784
q-41 -69 -110.5 -142t-145.5 -119q-6 -4 -11 -8q38 76 86 159q83 145 264 329q-45 -155 -83 -219z" />
    <glyph glyph-name="Z" unicode="Z" horiz-adv-x="1251" 
d="M181.5 -38.5q-17.5 -1.5 -38.5 15.5q34 32 65 43.5t82 10.5q-46 -44 -68.5 -56t-40 -13.5zM1091 1029q-107 -138 -136 -188q-29 -52 -115 -168q-69 -6 -95 -16t-60.5 -20t-111.5 -62q90 12 115.5 14.5t99.5 8.5q-95 -132 -198 -253t-144.5 -165.5t-94.5 -88.5
q-64 11 -102.5 3.5t-64 -23t-48.5 -32t-53 -58.5q29 -33 46.5 -45.5t35 -18.5t41.5 -5t46.5 8t54.5 27.5t54.5 36.5t44.5 33q24 -7 55 -20.5t79.5 -47t92.5 -72t101 -93.5t143.5 -102.5t198.5 -56.5t199.5 9t148.5 52.5t98 68t90 97t118 228.5q-127 -157 -171 -196.5
t-132 -81t-171.5 -49.5t-151.5 -1t-126.5 30.5t-109.5 53.5t-120.5 74t-105 66.5t-76 43t-101.5 43.5q61 50 120.5 111.5t123 132t117 143t106.5 142.5q106 -6 173 -44l107 83q-151 24 -223 43q65 109 127 196t114 163.5t163 168.5q-138 -42 -215 -62t-141 -34.5t-136 -28
t-130 -21.5t-97 -6t-77 5.5t-104 16.5q19 40 80 105q-102 -40 -141.5 -67t-114.5 -102q80 -36 135 -52t109 -20.5t99 0.5t89.5 12t96.5 19t106.5 25.5t138.5 36.5z" />
    <glyph glyph-name="bracketleft" unicode="[" horiz-adv-x="599" 
d="M257 1280h296l-48 -92h-287zM104 -404h295l-47 -103h-288zM358 1282l-183 -1780h-128l183 1780h128z" />
    <glyph glyph-name="backslash" unicode="\" horiz-adv-x="701" 
d="M690 -304q-219 365 -304 537t-153 328.5t-231 614.5l129 104q74 -384 139.5 -559t171.5 -383t357 -552z" />
    <glyph glyph-name="bracketright" unicode="]" horiz-adv-x="599" 
d="M344 -505h-296l48 92h287zM497 1179h-295l47 103h288zM243 -507l183 1780h128l-183 -1780h-128z" />
    <glyph glyph-name="asciicircum" unicode="^" 
d="M211 799l232 355h118l232 -355h-58l-233 216l-233 -216h-58z" />
    <glyph glyph-name="underscore" unicode="_" 
d="M229 -34h660l-114 -68h-674z" />
    <glyph glyph-name="grave" unicode="`" 
d="M733 799h-69l-330 202q-31 20 -46.5 40t-15.5 42q0 31 20.5 51t53.5 20q20 0 40.5 -12t55.5 -47z" />
    <glyph glyph-name="a" unicode="a" horiz-adv-x="962" 
d="M695 621q-129 72 -200 61q-84 -13 -145 -64t-92 -102t-43 -128.5t9.5 -137.5t61.5 -92t74.5 -48.5t114.5 -8.5q53 5 134 47v3q-22 67 -22.5 148.5t22.5 153.5t74 149q6 10 12 19zM631 92q-100 -78 -173 -89q-90 -14 -167.5 3.5t-126 56t-78 95.5t-33 127.5t11 130t73 134
t121 113.5t172.5 71q96 27 308 -28v1l176 59q-102 -129 -142 -213.5t-50 -159.5t-8 -131t7 -100.5t25 -91.5q56 8 117 55q-52 -79 -79 -102t-97 -38q-35 59 -57 107z" />
    <glyph glyph-name="b" unicode="b" horiz-adv-x="950" 
d="M235 132q131 -59 210 -53q89 7 149 53t91.5 97t43.5 128.5t-9.5 136.5t-62.5 91.5t-76 48.5t-116 9q-50 -5 -124 -42q1 -83 -11 -159q-18 -106 -62 -219q-22 -54 -33 -91zM337 674q82 56 145 66q91 14 170 -3.5t129 -56t79.5 -95t37 -124t-10.5 -129t-72.5 -138
t-123.5 -122t-181 -68.5q-105 -21 -341 42l-126 -58q92 188 125 312t36 233.5t-4.5 193.5t-16 135.5t-24.5 95t-38 117.5q76 26 137 87q28 -157 49 -265q20 -106 30 -223z" />
    <glyph glyph-name="c" unicode="c" horiz-adv-x="856" 
d="M290.5 155.5q40.5 -32.5 75 -48.5t114 -8.5t222.5 99.5l-73 -101q-77 -83 -166.5 -97t-167 3.5t-126.5 56.5t-78.5 96t-33 128t10.5 130.5t73 134.5t121 114.5t172.5 71t368.5 -43.5l-61 -96q-159 101 -243 88t-145 -64.5t-92 -103t-43 -129.5t9.5 -138t62 -92.5z" />
    <glyph glyph-name="d" unicode="d" horiz-adv-x="901" 
d="M640 634q-82 36 -139 31q-79 -8 -145 -54t-97 -97t-43 -128t9.5 -136.5t62 -91.5t75 -48t114.5 -8q62 5 156 58q-10 63 -14 112q-8 105 3 230q5 69 18 132zM646 92q-111 -76 -186 -88q-90 -14 -167.5 3.5t-127 56t-79 95t-35 121t10.5 129t68 138t126 117.5t183 72
q85 22 222 -14q2 6 4 13q33 107 92.5 217t68.5 151l181 60q-118 -180 -168.5 -303.5t-70.5 -237t-25.5 -200.5t-5.5 -157.5t12 -145.5q57 3 124 64q-62 -112 -92 -142t-114 -46q-12 52 -21 97z" />
    <glyph glyph-name="e" unicode="e" horiz-adv-x="799" 
d="M223 275q3 -14 8 -27q21 -60 62 -92.5t75.5 -48.5t115 -8.5t252.5 105.5l-48 -76q-131 -114 -221.5 -128t-168.5 3.5t-128 56.5t-79.5 96t-33 128t10.5 130.5t52.5 115.5t90 99.5t123.5 76t153 37.5t139 -14q57 -20 129 -79h2v-2l1 -1l-2 -1q-21 -78 -54 -120
q-35 -43 -74 -75.5t-104.5 -68.5t-144.5 -66q-51 -20 -156 -41zM628 616q-61 58 -132 56q-77 -2 -138.5 -53.5t-93 -103t-43.5 -129.5q-2 -15 -3 -29q127 22 184 49q74 35 131 79q54 42 95 131z" />
    <glyph glyph-name="f" unicode="f" horiz-adv-x="599" 
d="M379 736h23q41 0 80.5 7.5t140.5 63.5q-33 -82 -56 -114.5t-55.5 -49.5t-61.5 -18t-78 2h-7l-83 -669q-23 -116 -41 -174t-64.5 -135t-202.5 -260q20 69 -18.5 97.5t-90 88t-82 121t3.5 134t140 151.5q-51 -115 -62 -154t19.5 -89.5t72 -84t71 6t65 103.5t73.5 238
l79 633q-57 3 -92 -1q-40 -4 -121 -41q39 101 79 127.5t80 27.5q27 0 68 -3l24 191q18 127 40.5 175.5t60 82.5t98.5 59t157.5 16t261.5 -99q-65 -39 -108 -89q-39 -69 -75 -99t-116 -63q55 69 72 107q15 34 18 86q-13 6 -25 12q-43 19 -86.5 22.5t-77.5 -13t-52 -42
t-28.5 -66t-23.5 -128.5z" />
    <glyph glyph-name="g" unicode="g" horiz-adv-x="1047" 
d="M780 572q-101 86 -208 96q-123 11 -196 -27.5t-112.5 -97t-55.5 -137.5t8 -175t89 -108.5t119 11.5t106 62q40 29 164 154q21 83 86 222zM678 264q-103 -124 -184 -179q-114 -78 -204 -68t-130.5 45t-65.5 80t-33 113t14 157t74 160.5t140.5 121.5t228.5 55
q124 4 320 -60q1 3 3 6l160 88q-117 -228 -160 -340t-64.5 -328t-40.5 -338t-69.5 -223t-135.5 -146.5t-201 -47t-224.5 35.5t-159 111.5t-7 157t133.5 149.5t276 132q-201 -149 -236 -189.5t-60 -98t27 -114t171.5 -74t171.5 3.5t97.5 85.5t76.5 173t50 296.5
q14 137 31 235z" />
    <glyph glyph-name="h" unicode="h" horiz-adv-x="829" 
d="M206 241q-23 -100 -65 -238l-125 -44q57 189 76 289t31 196t17 210t-35 391q71 31 144 104q19 -202 21.5 -295.5t-9.5 -231.5q-7 -75 -15 -146q6 9 12 19q60 94 98 129t84.5 65t85 42t86.5 6t73.5 -35.5t32 -69t-1 -92t-25.5 -138.5t-36.5 -152.5t-20.5 -100t16 -48
t41.5 -10.5t82.5 38q-51 -80 -73.5 -99t-55.5 -29t-59.5 0t-40 39.5t-16.5 60.5t1 73t19.5 101t28 121.5t24 115t1 86t-34.5 35.5t-54.5 -13t-75 -46t-90 -83.5t-78 -104.5t-62.5 -142q-1 -2 -2 -3z" />
    <glyph glyph-name="i" unicode="i" horiz-adv-x="501" 
d="M373 739q-81 -133 -112.5 -209t-43.5 -134t-20 -111.5t-6.5 -91.5t25.5 -109q53 -8 155 55q-65 -87 -115.5 -113.5t-122.5 -33.5q-57 92 -63 170t8.5 151t32 125t40.5 109.5t32 130.5zM300 957l154 45l-83 -124l-139 -32z" />
    <glyph glyph-name="j" unicode="j" horiz-adv-x="451" 
d="M254 644l140 96q-52 -148 -78 -268.5t-46.5 -314t-46 -307t-80.5 -216.5t-198 -233q23 68 -21.5 96t-102.5 86.5t-93.5 118.5t3 131t159.5 150q-58 -114 -69 -149.5t21 -85t152 -110.5q66 83 94 179.5t47.5 207.5t42 265.5t76.5 353.5zM330 954l151 45l-81 -124l-137 -32
z" />
    <glyph glyph-name="k" unicode="k" horiz-adv-x="788" 
d="M273 234q-18 -49 -42 -99q-47 -98 -52 -133l-160 -61q94 161 131.5 270.5t47.5 207t9.5 173t-4.5 123t-14.5 87.5t-24.5 109q67 16 126 66q13 -142 23.5 -241t10.5 -207q-1 -92 -17 -173q9 3 17 4q15 1 35 -2q80 58 114 97q53 61 116 204l156 80q-76 -152 -123 -221.5
t-90 -108.5q-43 -40 -104 -82l11 -11q28 -30 65 -90t74 -122t65 -106t55 -62.5t61.5 -12t122.5 65.5q-48 -78 -79 -106.5t-60.5 -41.5t-58 -8.5t-58.5 24.5t-62.5 68.5t-56 89.5t-50 87t-47.5 80t-39.5 54.5t-40.5 21.5q-9 0 -17 -1q-19 -11 -40 -23z" />
    <glyph glyph-name="l" unicode="l" horiz-adv-x="399" 
d="M404 1256q-82 -221 -121.5 -359t-54 -226.5t-28.5 -172t-18.5 -156t9.5 -148.5q16 -114 169 4q-51 -127 -98 -163.5t-101 -38.5t-81.5 94.5t-23.5 200t23.5 228t47 229.5t56.5 197.5t75 202.5z" />
    <glyph glyph-name="m" unicode="m" horiz-adv-x="1252" 
d="M284 346q-7 -52 -16 -101q-16 -79 -78 -232l-147 -45q69 138 85.5 202t25.5 125.5t10 134t-35 241.5q69 9 131 75q27 -129 33 -189q3 -26 3 -56v1q56 93 91.5 128.5t78 65.5t77.5 42t80 6t68.5 -35.5t29 -69.5t-1.5 -92q-5 -34 -15 -82q5 9 11 18q46 80 90.5 129.5
t87 79.5t78 42t80.5 6t68 -35.5t28.5 -69.5t-1 -92t-23 -137.5t-33 -152.5t-19 -100.5t14 -48t38.5 -10.5t76 38q-48 -80 -68.5 -99t-51 -29.5t-54.5 0t-36.5 39.5t-15.5 60.5t0.5 73.5t18 101t26 121t22 115t1.5 86.5t-32 35.5t-50.5 -13t-68.5 -46.5t-83 -82.5t-67 -105
t-58.5 -143.5t-76.5 -235.5l-100 -29l-37 -11q63 165 73 209t24 103t25.5 121t22 115t1 86.5t-31.5 35.5t-50.5 -13t-69 -46.5t-83 -83.5t-72.5 -104q-13 -21 -24 -47z" />
    <glyph glyph-name="n" unicode="n" horiz-adv-x="894" 
d="M264 235q-16 -79 -74 -229l-144 -46q67 140 83 205.5t25 128t10 136t-34 245.5q67 9 128 76q26 -131 32 -192q4 -44 2 -103q13 24 28 47q60 95 99.5 131t86 66.5t85.5 42.5t88 6t74.5 -36t32 -70.5t-1 -93.5t-26 -140.5t-37 -155.5t-20.5 -102t16.5 -48.5t42.5 -10.5
t83 39q-52 -82 -74.5 -101t-56 -29.5t-60.5 0t-40 40.5t-17 61.5t0.5 74t20 102.5t28 123.5t24.5 117t1.5 87t-35.5 35.5t-55 -12.5t-75 -46.5t-92 -85t-80 -106t-63 -144q-2 -6 -5 -13z" />
    <glyph glyph-name="o" unicode="o" horiz-adv-x="852" 
d="M671 700q-34 24 -113.5 39t-144.5 -1t-101.5 -34t-73.5 -43t-73 -65t-61.5 -89.5t-40 -108.5t-8 -117.5t18.5 -94t39 -71.5t76 -68t101 -43.5t103 -9.5t106 27t92.5 58.5t66.5 68.5t52 72t40.5 75.5t28 74.5t16.5 70.5t2 64t-11 51.5t-19.5 48.5t-37 49t-58.5 46.5z
M434.5 78.5q-24.5 -6.5 -52.5 -5t-53 8.5t-50.5 30t-43.5 53.5t-26.5 71t-5.5 82t9 81t20 79.5t35.5 72.5t56 63.5t79.5 46.5t85 15t77 -14t79 -53.5l1 1l-2 -2q22 -43 30.5 -66.5t7 -49t-1.5 -46.5t-8 -51t-24.5 -70.5t-36.5 -76t-41 -65t-43 -49t-44.5 -34.5t-47 -21.5z
" />
    <glyph glyph-name="p" unicode="p" horiz-adv-x="837" 
d="M210 109q120 -44 195 -22q80 24 133 77.5t71 105t30 118t-27 144t-127 101.5t-161 -13q-48 -25 -110 -100q2 -20 3 -37q9 -110 6 -230q-2 -76 -13 -144zM202 673q63 43 120 56q72 18 128.5 19t137 -28.5t123 -75.5t60 -115.5t0 -149t-49.5 -135t-80 -102.5t-153 -103
q-93 -50 -302 -27q-27 -93 -77 -189q-56 -108 -63 -148l-181 -66q111 177 156 298.5t58.5 230.5t14.5 192.5t-2 136t-14 97.5t-25 119q76 20 143 75q3 -44 6 -85z" />
    <glyph glyph-name="q" unicode="q" horiz-adv-x="1026" 
d="M744 608q-114 51 -206 49q-118 -3 -185 -49t-99 -96.5t-44 -128t10 -136.5t63 -91t76 -48t117 -8q42 3 93 22q13 109 44 205q35 109 99 221q18 33 32 60zM561 36q-51 -26 -102 -33q-92 -14 -171.5 3t-129 55.5t-80 95t-34 126.5t10.5 128.5t67 132t133.5 121.5t205.5 78
q108 26 340 -35l173 55q-124 -183 -179 -310t-76 -242t-28 -204.5t-8.5 -161.5t26.5 -157q81 23 175 141q-67 -141 -128.5 -192.5t-135.5 -62.5q-33 106 -50 246q-14 112 -9 216z" />
    <glyph glyph-name="r" unicode="r" horiz-adv-x="701" 
d="M236 187q-22 -73 -69 -187l-158 -47q74 143 91.5 209.5t27 130t11 139t-36.5 250.5q73 10 140 77q28 -134 35 -196q4 -41 1 -96q2 2 3 5q38 63 66.5 97.5t57.5 66.5t51.5 50t61.5 41.5t56.5 19t38.5 -9.5t48.5 -9.5t64.5 3t135 57.5q-28 -61 -48.5 -86t-50.5 -39
t-76.5 -18t-81 5t-93 -40.5t-104.5 -105t-72.5 -103t-70.5 -147.5q-13 -31 -28 -67z" />
    <glyph glyph-name="s" unicode="s" horiz-adv-x="750" 
d="M423 373.5q-41 -4.5 -89.5 -6.5t-90.5 7t-66 33.5t-33 62.5t-3.5 70t27.5 67t45 54.5t53 38t78.5 34t85 17.5t72.5 -6.5t55 -27.5t30 -38t11 -35.5t-16 -33t-38.5 -27.5t-94.5 -21q36 21 47.5 29t23 25.5t0 28.5t-32.5 16t-48 4t-57 -9t-58.5 -26.5t-50.5 -51t-3 -67
t66.5 -30t103 9.5t113 -2t91 -37t44.5 -64t5.5 -69.5t-15.5 -69.5t-26.5 -62t-37 -54t-48 -49.5t-56 -40t-56.5 -27t-67 -16.5t-81.5 -4t-84 10.5t-78.5 28.5t-59.5 46t-26.5 62t15.5 67.5t49 56.5t64.5 37t119 25q-67 -59 -93 -83t-34.5 -57.5t13.5 -58t66.5 -38
t74.5 -12.5t65.5 11.5t58.5 27t45 42t38.5 64.5t15.5 79t-46 57t-86 12.5z" />
    <glyph glyph-name="t" unicode="t" horiz-adv-x="501" 
d="M242 744q2 4 3 7q32 75 54 174l198 60q-88 -149 -133 -243q30 -2 53 -2q37 0 72 6.5t62.5 18.5t100.5 64q-55 -106 -81.5 -129.5t-55.5 -38t-55 -15.5t-71 1q-30 1 -65 3q-24 -61 -38 -112q-22 -78 -38.5 -149.5t-21.5 -123t7 -151.5q51 -17 163 56q-79 -110 -133 -140
t-127 -31q-42 132 -35 238.5t33 203.5t53 166q8 23 18 46h-11q-36 -4 -140 -43q78 87 107.5 105t65.5 27q7 1 15 2z" />
    <glyph glyph-name="u" unicode="u" horiz-adv-x="901" 
d="M606 474q14 75 76 218l153 62q-73 -150 -89.5 -210.5t-25.5 -119t-10 -127t21 -133t117 4.5q-62 -124 -126 -154t-99.5 37.5t-41.5 124.5q-4 42 -1 97q-14 -23 -29 -44q-63 -90 -103 -123t-88 -61.5t-87 -40t-89.5 -5.5t-76.5 33.5t-39 73t-12 99t13 121t31 142.5t89 219
l151 57q-97 -201 -118 -278t-31.5 -136.5t-9 -113t12 -85t36 -33.5t56.5 12t76.5 43.5t93.5 79t82 99t65 134.5q1 4 3 7z" />
    <glyph glyph-name="v" unicode="v" horiz-adv-x="901" 
d="M298 -28q141 60 201 106q64 47 127 105.5t101.5 114t71.5 122.5t45 125.5t1.5 133t-79.5 112t-193 -62.5q107 5 126 -53t13.5 -101.5t-19.5 -96.5t-38.5 -98t-52.5 -87.5t-65.5 -85t-129.5 -100.5q-11 128 -23 189.5t-27 118t-40 114t-48.5 99.5t-54 80.5t-81.5 31.5
t-103 -82q54 11 72 -11t38.5 -55t40.5 -71t44.5 -94.5t47 -129t33 -131t12.5 -96t-20 -97.5z" />
    <glyph glyph-name="w" unicode="w" horiz-adv-x="1211" 
d="M655 307q19 -73 28 -131.5t10.5 -96t-16.5 -97.5q120 60 188.5 112.5t109.5 93t84 96t71 130.5t36 137.5t-12.5 137t-79.5 112t-164 -62.5q91 5 107 -53t11.5 -101.5t-16.5 -96.5t-32.5 -98t-44.5 -87.5t-56 -85t-98 -80.5q-5 108 -15 171.5t-19 120t-43 187.5l-7 -2
q-1 2 -1 5l-150 -55q20 -35 23 -86t-12.5 -94t-36 -87.5t-37 -69t-73.5 -82.5q-9 120 -21.5 177.5t-27 118t-34 112t-43 97.5t-55.5 74.5t-85.5 15.5t-109.5 -112q78 43 101 13t45.5 -81t47.5 -117.5t44 -139t28 -131t10.5 -96t-16.5 -97.5q119 60 171.5 106.5t94 105
t73.5 120.5q7 13 14 28q4 -16 8 -31z" />
    <glyph glyph-name="x" unicode="x" horiz-adv-x="848" 
d="M324 383q-102 202 -120 229q-21 30 -47 46t-110 -26q44 65 73 84.5t69 25.5t92 -28q42 -29 142 -219q50 55 96 103q70 72 170 140l185 62q-191 -161 -244 -219t-145 -158l-16 -18l1 -1q137 -275 162 -299t55.5 -24.5t111.5 28.5q-60 -80 -117 -99t-97.5 -9.5t-72.5 41.5
q-30 30 -143 252q-13 -15 -24 -28q-47 -57 -91.5 -120.5t-153.5 -284.5l-128 -105q79 208 123.5 292t81 138.5t76.5 108.5q27 36 71 88z" />
    <glyph glyph-name="y" unicode="y" 
d="M346 -228q-46 -49 -86.5 -51t-82.5 49t-83 153l-128 -89q46 -83 79 -121.5t72.5 -67t99.5 -42t116 7.5t95 77.5t88 159.5l296 677q29 82 56 121t126 102q-114 2 -151 -5.5t-64.5 -33t-58.5 -88.5q-117 -283 -197 -472q-104 41 -137 82q-40 51 -73 112t-128 403l-143 -113
q152 -405 218.5 -484.5t123.5 -113.5q34 -21 74 -35q-90 -204 -112 -228z" />
    <glyph glyph-name="z" unicode="z" horiz-adv-x="780" 
d="M-74 -5l-28 -21q152 29 252.5 28t175 -9.5t271.5 -66.5l133 94q-156 37 -209.5 51.5t-130.5 20.5t-136 5q-44 -1 -83 -5l629 651l-8 -3l32 21q-255 -54 -317.5 -60.5t-126 -1.5t-178.5 42l-156 -123q238 -27 302.5 -20t140.5 18q36 5 76 13z" />
    <glyph glyph-name="braceleft" unicode="{" horiz-adv-x="712" 
d="M661 -597v-36q-167 24 -271.5 139.5t-104.5 256.5q0 73 23 171.5t23 152.5q0 74 -60.5 138.5t-167.5 78.5v42q107 14 167.5 78t60.5 139q0 54 -23 151.5t-23 172.5q0 140 104.5 256t271.5 139v-36q-117 -29 -171.5 -94t-54.5 -143q0 -61 22.5 -160t22.5 -169
q0 -104 -74 -201.5t-221 -150.5q144 -55 219.5 -154.5t75.5 -203.5q0 -70 -22.5 -169t-22.5 -160q0 -78 54.5 -143t171.5 -95z" />
    <glyph glyph-name="bar" unicode="|" horiz-adv-x="399" 
d="M244 1283v-1915h-83v1915h83z" />
    <glyph glyph-name="braceright" unicode="}" horiz-adv-x="727" 
d="M47 1245v36q171 -23 278.5 -138.5t107.5 -256.5q0 -74 -23.5 -171.5t-23.5 -152.5q0 -73 62 -137.5t172 -78.5v-42q-110 -15 -172 -79t-62 -138q0 -54 23.5 -152t23.5 -172q0 -139 -107.5 -255t-278.5 -140v36q120 30 176 94.5t56 143.5q0 61 -23.5 160t-23.5 167
q0 105 76.5 202.5t226.5 150.5q-147 55 -225 154.5t-78 202.5q0 70 23.5 169t23.5 160q0 78 -56 143t-176 94z" />
    <glyph glyph-name="asciitilde" unicode="~" 
d="M833 462q-47 -134 -102.5 -172.5t-103.5 -36.5t-130.5 32.5t-128 37.5t-89.5 -9t-108 -76q55 139 103 170t97.5 34t131.5 -26.5t127 -36.5t96 12t107 71z" />
    <glyph glyph-name="exclamdown" unicode="&#xa1;" horiz-adv-x="672" 
 />
    <glyph glyph-name="cent" unicode="&#xa2;" horiz-adv-x="469" 
d="M165 650q21 -18 39.5 -27t61 -5t118.5 55l-11 -39q-69 -63 -116.5 -71t-89 2t-67.5 31.5t-41.5 53.5t-17.5 71.5t5.5 72.5t39 74.5t64.5 63.5t91.5 39.5t196.5 -24.5l-33 -53q-85 56 -129.5 49t-77 -35.5t-48.5 -57.5t-22.5 -72.5t5 -76.5t32.5 -51zM186 484l65 539
l72 29l-71 -539z" />
    <glyph glyph-name="sterling" unicode="&#xa3;" horiz-adv-x="701" 
d="M166 522q-13 85 -17 131q-6 53 5 126t59 122t108 68t106.5 16.5t98 -15t148.5 -36.5l-73 -103q-18 52 -58 63q-67 27 -119.5 25.5t-79 -16.5t-52.5 -50t-28.5 -96t4.5 -113q6 -45 13 -122h210q17 1 39 12l-26 -33q-8 -8 -6 -14l-28 -16q-12 -11 -31 -11h-149
q2 -90 2 -141q-14 -151 -80 -252h241q87 0 146 56l-20 -64q-24 -51 -74 -59h-458q67 81 94 151.5t36.5 142.5t-2.5 169h-48q-19 -1 -36 -11l19 24q-4 11 13 11q-9 -2 -21 -7l11 19q22 21 43 23h10z" />
    <glyph glyph-name="currency" unicode="&#xa4;" horiz-adv-x="1014" 
d="M350 560q41 -40 99 -57q29 -8 58 -8t58 8q58 17 99 57q40 41 57 99q9 29 9 58t-9 58q-17 58 -57 99q-41 40 -100 57q-29 8 -58 8t-58 -9q-58 -17 -98 -56q-39 -40 -56 -98q-10 -30 -10 -60q0 -28 9 -56q16 -59 57 -100zM240 903l-118 118l80 81l118 -118q44 30 99 46
q44 14 89 14q41 0 83 -12q57 -17 102 -48l118 118l80 -81l-117 -117q31 -46 48 -102q12 -42 12 -85q0 -42 -12 -85q-17 -56 -48 -102l117 -117l-80 -81l-118 118q-45 -32 -101 -48q-42 -12 -85 -12q-42 0 -85 12q-57 16 -102 48l-118 -118l-80 81l118 117q-32 46 -48 103
q-12 42 -12 84q0 44 13 87q16 55 47 99z" />
    <glyph glyph-name="yen" unicode="&#xa5;" horiz-adv-x="1262" 
d="M453 184l-1 200q0 15 -1.5 28.5t-3.5 26.5l-400 1q-12 0 -17.5 5.5t-5.5 15.5q0 11 5 16t18 5h386l-100 142h-285q-14 0 -19 4.5t-5 15.5t5 15.5t18 4.5h253q-35 48 -89 129q-108 162 -187 162q-6 0 -11 4.5t-5 9.5q0 16 8.5 23t27.5 7q22 0 101 -6.5t136 -6.5h72
q28 0 34.5 -5.5t6.5 -21.5q0 -7 -12.5 -12t-31.5 -5q-5 0 -15.5 1.5t-15.5 1.5q-19 0 -30.5 -7.5t-11.5 -21.5t14 -42.5t38 -63.5l131 -183q11 -15 27 -43q34 -58 59 -58q7 0 13.5 4t11.5 12l229 327q7 10 11 22t4 20q0 15 -8.5 22.5t-30.5 11.5q-12 2 -34 4q-39 2 -39 20
q0 13 7 19t21 6q2 0 12 -1q46 -6 89 -6h115q25 0 54 1t30 1q9 0 15.5 -3.5t7.5 -9.5q0 -23 -32 -28q-15 -3 -22 -4q-52 -13 -121 -97q-6 -7 -10 -12l-140 -171h267q12 0 19.5 -4.5t7.5 -14.5q0 -12 -5 -16.5t-19 -4.5h-302q-38 -47 -80 -93t-43 -49h422q15 0 21 -4.5
t6 -14.5q0 -12 -5.5 -17.5t-18.5 -5.5h-438q0 -9 -0.5 -25t-0.5 -25l1 -177q0 -94 4.5 -124t17.5 -37q25 -14 89 -15.5t64 -25.5q0 -10 -8.5 -16.5t-20.5 -6.5q-2 0 -29.5 3.5t-53.5 3.5q-75 0 -172 -3.5t-118 -3.5q-25 0 -32.5 3.5t-7.5 13.5q0 9 6.5 14.5t30.5 10.5
q7 2 21 4q61 13 76 27q14 10 19.5 38.5t5.5 84.5z" />
    <glyph glyph-name="brokenbar" unicode="&#xa6;" horiz-adv-x="1014" 
d="M427 371h160v-789h-160v789zM427 1578h160v-789h-160v789z" />
    <glyph glyph-name="section" unicode="&#xa7;" horiz-adv-x="557" 
d="M312 179q39 11 68 37q51 45 51 116q0 4 -1 7h-1q-1 10 -3 19q-15 42 -79 89q-41 20 -88 20q-55 0 -87.5 -31t-32.5 -82q0 -86 173 -175zM257 -287q79 4 129 48q50 45 50 115q0 88 -220 193q-86 45 -123 96t-37 124q0 103 62 165q47 46 119 58l-28 13q-86 45 -122.5 96
t-36.5 123q0 104 62 166q57 55 151 60q6 1 12 1h2q46 0 114 -11.5t68 -29.5v-135h-36q-3 56 -56 92q-49 33 -104 35h-10q-55 0 -88 -31t-33 -82q0 -92 201 -188q104 -47 143 -100t39 -131q0 -119 -71 -197q-33 -27 -69 -45q75 -39 108 -82q38 -54 38 -131q0 -119 -71 -198
q-86 -71 -193 -73v1q-4 -1 -9 -1h-2q-46 0 -114 11.5t-68 29.5v135h36q3 -57 56 -92q47 -32 101 -35z" />
    <glyph glyph-name="dieresis" unicode="&#xa8;" 
d="M223 949l71 72q13 12 25 12q11 0 27 -14l69 -73q10 -14 10 -25q0 -13 -12 -27l-69 -75q-17 -17 -25 -17q-14 0 -25 12l-76 86q-9 12 -9 23q0 13 14 26zM588 949l71 72q13 12 25 12q11 0 27 -13l69 -74q10 -14 10 -25q0 -13 -12 -26l-69 -76q-17 -17 -25 -17q-14 0 -25 12
l-76 87q-9 11 -9 22q0 13 14 26z" />
    <glyph glyph-name="copyright" unicode="&#xa9;" 
d="M420 739q73 0 141 -28t119 -81q52 -50 80 -119t28 -141q0 -74 -28 -142t-82 -120q-52 -52 -119.5 -79.5t-141.5 -27.5q-73 0 -139 28t-119 80t-81 119t-28 142q0 74 28 141.5t80 118.5q51 53 119 81t143 28zM197 587q-43 -44 -66.5 -100.5t-23.5 -118.5q0 -63 23.5 -119
t67.5 -100q45 -44 100.5 -67.5t117.5 -23.5t118.5 23t100.5 67q45 44 69 101t24 119q0 61 -24 118.5t-67 100.5q-44 44 -100.5 68t-118.5 24t-120 -24t-101 -68zM446 137q-61 3 -115 33t-82 81.5t-28 107.5t29 108.5t74.5 82.5t113.5 35q31 0 44 -2.5t21 -7.5t13 -4
q5 0 11 9h19l32 -89l-30 -3q-18 31 -48 46q-32 15 -65 11q-47 -6 -71.5 -26t-46.5 -60q-20 -49 -18 -92q-2 -15 -1 -35q10 -41 29.5 -83t65.5 -64q23 -10 62 -13q56 1 78 20t29 48h36v-60q-67 -46 -152 -43z" />
    <glyph glyph-name="ordfeminine" unicode="&#xaa;" horiz-adv-x="648" 
 />
    <glyph glyph-name="guillemotleft" unicode="&#xab;" horiz-adv-x="944" 
d="M174 479l342 303h14v-37l-205 -266l205 -266v-37h-14zM487 479l342 303h14v-37l-205 -266l205 -266v-37h-14z" />
    <glyph glyph-name="logicalnot" unicode="&#xac;" horiz-adv-x="1014" 
d="M87 767h840v-491l-1 -1h-98v392h-741v100z" />
    <glyph glyph-name="registered" unicode="&#xae;" horiz-adv-x="1002" 
d="M382 546v-177l2 -4q11 -26 26 -38q14 -11 26 -11h4q15 2 29 18.5t22 45.5q6 24 6 50v12q-2 32 -13.5 59t-27 36t-29.5 9h-45zM492 298l40 -55q47 -66 71 -66h16v-24h-164v24h21q14 0 14 10q0 13 -32 54l-36 48q-20 0 -40 20v-75q0 -57 17 -57h25v-24h-150v24h21
q17 0 17 57v255q0 57 -17 57h-21v33h169q30 0 59 -19q29 -20 44 -54.5t15 -72.5q0 -37 -14.5 -71t-54.5 -64zM424 739q73 0 141.5 -28.5t120.5 -80.5q52 -51 80.5 -120.5t28.5 -143.5t-28.5 -142.5t-82.5 -120.5q-53 -54 -120.5 -81.5t-142.5 -27.5q-74 0 -140.5 28
t-121.5 81q-53 53 -81 120.5t-28 142.5t28 143t81 121q51 52 120 80.5t145 28.5zM196 593q-46 -46 -70 -104.5t-24 -122.5q0 -65 24 -123t70 -104q47 -46 104.5 -70t121.5 -24q65 0 123 24t104 69q46 47 70.5 105.5t24.5 122.5q0 63 -24.5 122.5t-69.5 104.5t-104 69.5
t-122 24.5q-65 0 -124 -24.5t-104 -69.5z" />
    <glyph glyph-name="macron" unicode="&#xaf;" horiz-adv-x="670" 
 />
    <glyph glyph-name="degree" unicode="&#xb0;" horiz-adv-x="484" 
d="M244 1056q-44 0 -75 -31t-31 -75t31 -74.5t75 -30.5t74.5 30.5t30.5 74.5t-30.5 75t-74.5 31zM247 1134q77 0 131 -53.5t54 -129.5q0 -75 -55 -129t-132 -54q-78 0 -131.5 53.5t-53.5 129.5t54.5 129.5t132.5 53.5z" />
    <glyph glyph-name="plusminus" unicode="&#xb1;" horiz-adv-x="1014" 
 />
    <glyph glyph-name="uni00B2" unicode="&#xb2;" horiz-adv-x="1014" 
 />
    <glyph glyph-name="uni00B3" unicode="&#xb3;" horiz-adv-x="1014" 
 />
    <glyph glyph-name="acute" unicode="&#xb4;" 
d="M567 1095q35 35 55.5 47t40.5 12q33 0 53.5 -20t20.5 -51q0 -22 -15.5 -42t-46.5 -40l-330 -203h-69z" />
    <glyph glyph-name="mu" unicode="&#xb5;" horiz-adv-x="1180" 
 />
    <glyph glyph-name="paragraph" unicode="&#xb6;" horiz-adv-x="677" 
d="M624 980v-48h-87v-932h-56v932h-113v-932h-58v504q-118 6 -187.5 70.5t-69.5 167.5q0 107 73.5 172.5t194.5 65.5h303z" />
    <glyph glyph-name="periodcentered" unicode="&#xb7;" horiz-adv-x="508" 
d="M173 533l67 52q12 8 23 7q9 -1 20 -14l48 -72q8 -12 6 -21q-1 -11 -14 -21l-67 -55q-16 -12 -22 -11q-12 1 -20 13l-52 82q-6 10 -5 20q2 11 16 20z" />
    <glyph glyph-name="periodcentered" unicode="&#x2219;" horiz-adv-x="508" 
d="M173 533l67 52q12 8 23 7q9 -1 20 -14l48 -72q8 -12 6 -21q-1 -11 -14 -21l-67 -55q-16 -12 -22 -11q-12 1 -20 13l-52 82q-6 10 -5 20q2 11 16 20z" />
    <glyph glyph-name="cedilla" unicode="&#xb8;" horiz-adv-x="1024" 
d="M360 -290q85 -52 152 -52q66 0 94.5 21.5t28.5 66.5t-49 64q-40 16 -102 16q-16 0 -34 -2l48 176h63l-37 -104q32 4 62 5q86 0 134 -40.5t48 -113.5q0 -76 -58.5 -120.5t-160.5 -44.5q-109 0 -189 32v96z" />
    <glyph glyph-name="uni00B9" unicode="&#xb9;" horiz-adv-x="1014" 
 />
    <glyph glyph-name="ordmasculine" unicode="&#xba;" horiz-adv-x="718" 
 />
    <glyph glyph-name="guillemotright" unicode="&#xbb;" horiz-adv-x="944" 
d="M115 176h-14v37l205 266l-205 266v37h14l342 -303zM428 176h-14v37l205 266l-205 266v37h14l342 -303z" />
    <glyph glyph-name="onequarter" unicode="&#xbc;" horiz-adv-x="1708" 
 />
    <glyph glyph-name="onehalf" unicode="&#xbd;" horiz-adv-x="1964" 
 />
    <glyph glyph-name="threequarters" unicode="&#xbe;" horiz-adv-x="1708" 
 />
    <glyph glyph-name="questiondown" unicode="&#xbf;" horiz-adv-x="748" 
 />
    <glyph glyph-name="Agrave" unicode="&#xc0;" horiz-adv-x="1540" 
 />
    <glyph glyph-name="Aacute" unicode="&#xc1;" horiz-adv-x="1540" 
 />
    <glyph glyph-name="Acircumflex" unicode="&#xc2;" horiz-adv-x="1540" 
 />
    <glyph glyph-name="Atilde" unicode="&#xc3;" horiz-adv-x="1540" 
 />
    <glyph glyph-name="Adieresis" unicode="&#xc4;" horiz-adv-x="1540" 
 />
    <glyph glyph-name="Aring" unicode="&#xc5;" horiz-adv-x="1540" 
 />
    <glyph glyph-name="AE" unicode="&#xc6;" horiz-adv-x="1698" 
d="M597 868.5q-27 -56.5 -66 -137.5q62 7 112 10.5t111 0t116 -16.5q-12 62 -26 119t-34 101t-83 111q-51 -48 -77 -89.5t-53 -98zM880 526q1 46 1 111q-89 17 -136 18t-101 0t-154 -25q-71 -120 -99 -168t-78.5 -112t-112 -131.5t-238.5 -219.5q-80 -4 -243 -83
q217 184 280 248.5t116.5 125.5t101.5 121.5t124 189.5q-96 -25 -136.5 -41.5t-172.5 -74.5l114 114q95 59 229 99q78 156 129.5 245t100.5 143t133 109q93 -80 130 -134q226 68 333 91q110 24 211.5 42t289.5 -16l-154 -96q-93 21 -150 16.5t-134 -14.5t-133.5 -20
t-105.5 -22q19 -42 29 -89t11 -110q0 -58 -14 -149q61 -10 134 -19l-12 -9q35 -1 80 2q65 3 137.5 17t139.5 39q-73 -64 -103.5 -85t-63 -36.5t-90.5 -23t-109.5 -7t-133.5 0.5q-22 -78 -37 -117q-2 -34 -5 -60q-12 -80 -42 -180q-20 -65 -53 -135q107 3 162 1
q85 -5 165 -16t162.5 -29.5t298.5 -72.5l-138 -110q-158 75 -249.5 99t-162.5 31.5t-138 12.5t-138 8q-1 0 -1 -1l-4 2q-73 3 -282 -22q79 72 151.5 182.5t121.5 240.5q23 63 39 119z" />
    <glyph glyph-name="Ccedilla" unicode="&#xc7;" horiz-adv-x="1399" 
 />
    <glyph glyph-name="Egrave" unicode="&#xc8;" horiz-adv-x="1151" 
 />
    <glyph glyph-name="Eacute" unicode="&#xc9;" horiz-adv-x="1151" 
 />
    <glyph glyph-name="Ecircumflex" unicode="&#xca;" horiz-adv-x="1151" 
 />
    <glyph glyph-name="Edieresis" unicode="&#xcb;" horiz-adv-x="1151" 
 />
    <glyph glyph-name="Igrave" unicode="&#xcc;" horiz-adv-x="657" 
 />
    <glyph glyph-name="Iacute" unicode="&#xcd;" horiz-adv-x="657" 
 />
    <glyph glyph-name="Icircumflex" unicode="&#xce;" horiz-adv-x="657" 
 />
    <glyph glyph-name="Idieresis" unicode="&#xcf;" horiz-adv-x="657" 
 />
    <glyph glyph-name="Eth" unicode="&#xd0;" horiz-adv-x="1518" 
 />
    <glyph glyph-name="Ntilde" unicode="&#xd1;" horiz-adv-x="1554" 
 />
    <glyph glyph-name="Ograve" unicode="&#xd2;" horiz-adv-x="1614" 
 />
    <glyph glyph-name="Oacute" unicode="&#xd3;" horiz-adv-x="1614" 
 />
    <glyph glyph-name="Ocircumflex" unicode="&#xd4;" horiz-adv-x="1614" 
 />
    <glyph glyph-name="Otilde" unicode="&#xd5;" horiz-adv-x="1614" 
 />
    <glyph glyph-name="Odieresis" unicode="&#xd6;" horiz-adv-x="1614" 
 />
    <glyph glyph-name="multiply" unicode="&#xd7;" 
d="M497 398l-247 -247l-99 99l247 247l-247 248l99 98l247 -247l248 247l98 -99l-247 -247l247 -247l-99 -99z" />
    <glyph glyph-name="Oslash" unicode="&#xd8;" horiz-adv-x="1614" 
 />
    <glyph glyph-name="Ugrave" unicode="&#xd9;" horiz-adv-x="1501" 
 />
    <glyph glyph-name="Uacute" unicode="&#xda;" horiz-adv-x="1501" 
 />
    <glyph glyph-name="Ucircumflex" unicode="&#xdb;" horiz-adv-x="1501" 
 />
    <glyph glyph-name="Udieresis" unicode="&#xdc;" horiz-adv-x="1501" 
 />
    <glyph glyph-name="Yacute" unicode="&#xdd;" horiz-adv-x="1233" 
 />
    <glyph glyph-name="Thorn" unicode="&#xde;" horiz-adv-x="1120" 
 />
    <glyph glyph-name="germandbls" unicode="&#xdf;" horiz-adv-x="1251" 
 />
    <glyph glyph-name="agrave" unicode="&#xe0;" horiz-adv-x="922" 
 />
    <glyph glyph-name="aacute" unicode="&#xe1;" horiz-adv-x="922" 
 />
    <glyph glyph-name="acircumflex" unicode="&#xe2;" horiz-adv-x="922" 
 />
    <glyph glyph-name="atilde" unicode="&#xe3;" horiz-adv-x="922" 
 />
    <glyph glyph-name="adieresis" unicode="&#xe4;" horiz-adv-x="922" 
 />
    <glyph glyph-name="aring" unicode="&#xe5;" horiz-adv-x="922" 
 />
    <glyph glyph-name="ae" unicode="&#xe6;" horiz-adv-x="1278" 
d="M449 454q-72 -24 -107 -49.5t-58.5 -63.5t-37 -80t-13.5 -100q68 2 108.5 13t71 30.5t47.5 36.5t53 51zM1098 616q-61 58 -132 56q-77 -2 -138.5 -53.5t-93 -103t-43.5 -129.5q-2 -15 -3 -29q127 22 184 49q74 35 131 79q54 42 95 131zM543 198q-37 -35 -58 -55
q-32 -32 -89 -68.5t-133 -57.5t-203 -25q0 110 25 188.5t69.5 150t110.5 118.5q53 38 154 76l-8 20q-32 60 -56.5 73t-47 11t-107.5 -45q43 89 74 117t80 38t89.5 -7t59 -47t28 -45t14.5 -25l3 -1l37 -92l6 8q38 56 89.5 99.5t123.5 76t153 37.5t139 -14q57 -20 129 -79h2
v-2l1 -1l-2 -1q-21 -78 -54 -120q-35 -43 -74 -75.5t-104.5 -68.5t-144.5 -66q-51 -20 -156 -41q3 -14 8 -27q21 -60 62 -92.5t75.5 -48.5t115 -8.5t252.5 105.5l-48 -76q-131 -114 -221.5 -128t-168.5 3.5t-128 56.5t-79 96q-11 20 -18 42z" />
    <glyph glyph-name="ccedilla" unicode="&#xe7;" horiz-adv-x="905" 
 />
    <glyph glyph-name="egrave" unicode="&#xe8;" horiz-adv-x="909" 
 />
    <glyph glyph-name="eacute" unicode="&#xe9;" horiz-adv-x="909" 
 />
    <glyph glyph-name="ecircumflex" unicode="&#xea;" horiz-adv-x="909" 
 />
    <glyph glyph-name="edieresis" unicode="&#xeb;" horiz-adv-x="909" 
 />
    <glyph glyph-name="igrave" unicode="&#xec;" horiz-adv-x="514" 
 />
    <glyph glyph-name="iacute" unicode="&#xed;" horiz-adv-x="514" 
 />
    <glyph glyph-name="icircumflex" unicode="&#xee;" horiz-adv-x="514" 
 />
    <glyph glyph-name="idieresis" unicode="&#xef;" horiz-adv-x="514" 
 />
    <glyph glyph-name="eth" unicode="&#xf0;" horiz-adv-x="1139" 
 />
    <glyph glyph-name="ntilde" unicode="&#xf1;" horiz-adv-x="1108" 
 />
    <glyph glyph-name="ograve" unicode="&#xf2;" horiz-adv-x="1010" 
 />
    <glyph glyph-name="oacute" unicode="&#xf3;" horiz-adv-x="1010" 
 />
    <glyph glyph-name="ocircumflex" unicode="&#xf4;" horiz-adv-x="1010" 
 />
    <glyph glyph-name="otilde" unicode="&#xf5;" horiz-adv-x="1010" 
 />
    <glyph glyph-name="odieresis" unicode="&#xf6;" horiz-adv-x="1010" 
 />
    <glyph glyph-name="divide" unicode="&#xf7;" 
d="M418 191l59 61q11 11 21 11t23 -12l58 -63q9 -11 9 -21q0 -11 -10 -22l-58 -64q-15 -15 -22 -15q-11 0 -21 10l-64 74q-7 9 -7 19q0 11 12 22zM423 820l59 61q11 11 21 11t23 -12l58 -63q9 -11 9 -21q0 -11 -10 -22l-58 -64q-15 -15 -22 -15q-11 0 -21 10l-64 74
q-7 9 -7 19q0 11 12 22zM97 407v140h807l1 -1v-139h-808z" />
    <glyph glyph-name="oslash" unicode="&#xf8;" horiz-adv-x="1010" 
 />
    <glyph glyph-name="ugrave" unicode="&#xf9;" horiz-adv-x="1059" 
 />
    <glyph glyph-name="uacute" unicode="&#xfa;" horiz-adv-x="1059" 
 />
    <glyph glyph-name="ucircumflex" unicode="&#xfb;" horiz-adv-x="1059" 
 />
    <glyph glyph-name="udieresis" unicode="&#xfc;" horiz-adv-x="1059" 
 />
    <glyph glyph-name="yacute" unicode="&#xfd;" horiz-adv-x="868" 
 />
    <glyph glyph-name="thorn" unicode="&#xfe;" horiz-adv-x="1010" 
 />
    <glyph glyph-name="ydieresis" unicode="&#xff;" horiz-adv-x="868" 
 />
    <glyph glyph-name="dotlessi" unicode="&#x131;" horiz-adv-x="514" 
d="M328 223q0 -173 100 -173h46v-50h-442v50h46q100 0 100 173v432q0 77 -111 77h-48v44q222 69 261 182h48v-735z" />
    <glyph glyph-name="circumflex" unicode="&#x2c6;" 
d="M211 799l232 355h118l232 -355h-58l-233 216l-233 -216h-58z" />
    <glyph glyph-name="caron" unicode="&#x2c7;" 
d="M211 1154h58l233 -214l233 214h58l-232 -356h-118z" />
    <glyph glyph-name="uni02C9" unicode="&#x2c9;" horiz-adv-x="998" 
d="M244 1145v125h516v-125h-516z" />
    <glyph glyph-name="breve" unicode="&#x2d8;" horiz-adv-x="1001" 
d="M209 1069h51q17 -73 75 -107t167 -34t166 33.5t74 107.5h51q-20 -133 -94 -201.5t-197 -68.5q-122 0 -197 69t-96 201z" />
    <glyph glyph-name="dotaccent" unicode="&#x2d9;" horiz-adv-x="1001" 
d="M401 939l69 72q6 6 13 9t14 3q6 0 12.5 -3t12.5 -9l71 -76q5 -4 7 -10t2 -14q-1 -9 -3 -15t-8 -12l-71 -76q-12 -11 -16 -13.5t-7 -2.5q-10 0 -16.5 2.5t-10.5 8.5l-75 87q-4 4 -6 9.5t-2 13.5q0 6 3 12.5t11 13.5z" />
    <glyph glyph-name="ring" unicode="&#x2da;" 
d="M401 977q0 -42 29 -71t71 -29t71 29t29 71q0 40 -29.5 69.5t-70.5 29.5t-70.5 -29.5t-29.5 -69.5zM325 977q0 75 51 126t125 51q76 0 127.5 -51.5t51.5 -125.5q0 -75 -51.5 -126.5t-127.5 -51.5q-74 0 -125 51.5t-51 126.5z" />
    <glyph glyph-name="ogonek" unicode="&#x2db;" 
d="M590 0q-71 -62 -110.5 -119.5t-39.5 -112.5q0 -47 27 -75t73 -28q40 0 69.5 15.5t49.5 48.5l28 -16q-36 -63 -90.5 -97t-119.5 -34q-70 0 -114 35.5t-44 90.5q0 76 60.5 156.5t161.5 135.5h49z" />
    <glyph glyph-name="tilde" unicode="&#x2dc;" 
d="M833 462q-47 -134 -102.5 -172.5t-103.5 -36.5t-130.5 32.5t-128 37.5t-89.5 -9t-108 -76q55 139 103 170t97.5 34t131.5 -26.5t127 -36.5t96 12t107 71z" />
    <glyph glyph-name="hungarumlaut" unicode="&#x2dd;" 
d="M207 799l144 273q24 44 45.5 63t46.5 19q28 0 48 -20t20 -47q0 -16 -10.5 -35t-30.5 -41l-205 -212h-58zM492 799l144 273q24 44 45.5 63t46.5 19q28 0 48 -20t20 -47q0 -16 -10.5 -35t-30.5 -41l-205 -212h-58z" />
    <glyph glyph-name="endash" unicode="&#x2013;" horiz-adv-x="1108" 
d="M56 419v120h996v-120h-996z" />
    <glyph glyph-name="emdash" unicode="&#x2014;" horiz-adv-x="2048" 
d="M0 419v120h2048v-120h-2048z" />
    <glyph glyph-name="quoteleft" unicode="&#x2018;" horiz-adv-x="349" 
d="M179 796q-44 0 -88.5 40.5t-44.5 92.5q0 67 71 139.5t139 72.5v-26q-73 -27 -87 -117q0 -73 129 -99v-26z" />
    <glyph glyph-name="quoteright" unicode="&#x2019;" horiz-adv-x="352" 
d="M168 1137q44 0 88.5 -39.5t44.5 -90.5q0 -66 -71 -136.5t-139 -70.5v26q73 26 87 114q0 71 -129 97v25z" />
    <glyph glyph-name="quotesinglbase" unicode="&#x201a;" horiz-adv-x="352" 
d="M168 281q44 0 88.5 -65.5t44.5 -151.5q0 -109 -71 -226.5t-139 -117.5v43q73 43 87 190q0 119 -129 161v42z" />
    <glyph glyph-name="quotedblleft" unicode="&#x201c;" horiz-adv-x="699" 
d="M179 799q-44 0 -88.5 39.5t-44.5 91.5q0 65 71 136t139 71v-26q-73 -26 -87 -114q0 -72 129 -97v-26zM532 799q-44 0 -88.5 39.5t-44.5 91.5q0 65 71 136t139 71v-26q-73 -26 -87 -114q0 -72 129 -97v-26z" />
    <glyph glyph-name="quotedblright" unicode="&#x201d;" horiz-adv-x="699" 
d="M168 1137q44 0 88.5 -40t44.5 -92q0 -67 -71 -138.5t-139 -71.5v26q73 26 87 116q0 73 -129 98v26zM521 1137q44 0 88.5 -40t44.5 -92q0 -67 -71 -138.5t-139 -71.5v26q73 26 87 116q0 73 -129 98v26z" />
    <glyph glyph-name="quotedblbase" unicode="&#x201e;" horiz-adv-x="699" 
d="M168 281q44 0 88.5 -65.5t44.5 -151.5q0 -109 -71 -226.5t-139 -117.5v43q73 43 87 190q0 119 -129 161v42zM521 281q44 0 88.5 -65.5t44.5 -151.5q0 -109 -71 -226.5t-139 -117.5v43q73 43 87 190q0 119 -129 161v42z" />
    <glyph glyph-name="dagger" unicode="&#x2020;" horiz-adv-x="839" 
d="M399 780q-6 81 -45 149q-48 85 -48 108q0 42 30.5 66.5t80.5 24.5q48 0 79.5 -23t31.5 -60q0 -27 -46 -115q-39 -71 -46 -150q80 6 148 45q85 48 108 48q42 0 67 -30.5t25 -80.5q0 -48 -23 -79.5t-61 -31.5q-27 0 -114 46q-72 39 -150 48q6 -148 92 -232
q-89 -386 -94 -818h-32q-5 432 -96 818q86 84 93 232q-80 -8 -149 -46q-85 -48 -108 -48q-41 0 -66 30.5t-25 80.5q0 48 23 79.5t60 31.5q27 0 115 -47q71 -39 150 -46z" />
    <glyph glyph-name="daggerdbl" unicode="&#x2021;" horiz-adv-x="835" 
d="M433 76q78 9 149 48q87 46 114 46q38 0 61 -31.5t23 -79.5q0 -50 -25 -80t-66 -30q-24 0 -108 48q-68 38 -148 45q7 -79 46 -150q46 -88 46 -114q0 -37 -31.5 -60t-79.5 -23q-50 0 -80 24.5t-30 65.5q0 24 48 108q38 68 45 149q-79 -8 -150 -46q-88 -47 -114 -47
q-37 0 -60 31.5t-23 78.5q0 51 24.5 81t65.5 30q24 0 108 -48q69 -38 149 -46q-8 189 -93 333q85 143 93 332q-80 -9 -149 -46q-84 -48 -108 -48q-41 0 -65.5 30t-24.5 80q0 48 23 79.5t60 31.5q26 0 114 -47q71 -39 150 -46q-7 81 -45 149q-48 84 -48 107q0 41 30 66t80 25
q48 0 79.5 -23t31.5 -60q0 -27 -46 -115q-39 -71 -46 -149q80 7 148 45q84 48 108 48q41 0 66 -30.5t25 -80.5q0 -47 -23 -78.5t-61 -31.5q-27 0 -114 46q-71 38 -149 48q6 -189 92 -332q-86 -144 -92 -333z" />
    <glyph glyph-name="bullet" unicode="&#x2022;" horiz-adv-x="1024" 
d="M216 718q0 123 87 209t210 86q122 0 208.5 -86.5t86.5 -208.5t-87.5 -209.5t-209.5 -87.5q-123 0 -209 87t-86 210z" />
    <glyph glyph-name="ellipsis" unicode="&#x2026;" horiz-adv-x="2048" 
d="M145 167l82 84q15 14 29 14q13 0 31 -16l80 -86q12 -16 12 -29q0 -15 -14 -31l-80 -88q-20 -20 -29 -20q-16 0 -29 14l-88 101q-10 13 -10 26q0 15 16 31zM828 167l82 84q15 14 29 14q13 0 31 -16l80 -86q12 -16 12 -29q0 -15 -14 -31l-80 -88q-20 -20 -29 -20
q-16 0 -29 14l-88 101q-10 13 -10 26q0 15 16 31zM1511 167l82 84q15 14 29 14q13 0 31 -16l80 -86q12 -16 12 -29q0 -15 -14 -31l-80 -88q-20 -20 -29 -20q-16 0 -29 14l-88 101q-10 13 -10 26q0 15 16 31z" />
    <glyph glyph-name="guilsinglleft" unicode="&#x2039;" horiz-adv-x="631" 
d="M174 479l342 303h14v-37l-205 -266l205 -266v-37h-14z" />
    <glyph glyph-name="guilsinglright" unicode="&#x203a;" horiz-adv-x="631" 
d="M115 176h-14v37l205 266l-205 266v37h14l342 -303z" />
    <glyph glyph-name="fraction" unicode="&#x2044;" horiz-adv-x="801" 
d="M38 -29l672 1031h60l-671 -1031h-61z" />
    <glyph glyph-name="fraction" unicode="&#x2215;" horiz-adv-x="801" 
d="M38 -29l672 1031h60l-671 -1031h-61z" />
    <glyph glyph-name="franc" unicode="&#x20a3;" horiz-adv-x="1014" 
d="M182 240h-131v41h131v493q0 158 -69 158h-65v34h616l70 -156h-33q-40 123 -128 123l-213 -1q-69 0 -69 -158v-237h243q68 0 68 42v39h33v-230h-33v40q0 42 -68 42h-243v-189h131v-41h-131v-48q0 -158 69 -158h65v-34h-377v34h65q69 0 69 158v48z" />
    <glyph glyph-name="lira" unicode="&#x20a4;" horiz-adv-x="1014" 
d="M530 910q-49 21 -108 21h-2q-67 0 -128 -69q-57 -62 -57 -162q0 -10 1 -21q0 -71 22 -143h257v-41h-243q8 -20 17 -40h238v-41h-217q24 -43 24 -93q0 -109 -109 -253h271q88 0 128 89l33 -1l-70 -156h-485v34q127 161 127 282q0 52 -23 97l-2 1h-116v41h97q-10 20 -18 40
h-91v41h76q-24 72 -24 130q0 153 83.5 234.5t209.5 81.5q51 0 125.5 -9.5t74.5 -22.5v-109h-39q-4 41 -52 69z" />
    <glyph glyph-name="peseta" unicode="&#x20a7;" horiz-adv-x="2028" 
d="M296 946v-456q2 -6 5 -11q28 -70 74 -105q39 -31 80 -31q7 0 13 1q47 6 87.5 52t59.5 121q15 60 15 123v33q-5 79 -34.5 149.5t-74.5 99.5q-38 24 -77 24h-14h-134zM1044 618h-124v-471q0 -55 24 -81q19 -22 56 -26l-49 132l33 1q38 -90 79 -120q39 -30 87 -30h5
q63 0 104 36q40 36 40 93q0 70 -178 156q-69 35 -98.5 76.5t-29.5 99.5q0 83 50 134h1zM729 620q-4 -70 -33 -134q-34 -78 -96.5 -121.5t-130.5 -43.5q-69 0 -132 44q-22 15 -41 35v-210q0 -162 70 -162h67v-34h-385v34h66q71 0 71 162v594q0 162 -71 162h-66v34h425
q63 -1 124 -43q63 -42 99 -121q34 -78 35 -163h7q148 0 148 244h34v-244h179q28 13 75 13h2q37 0 91.5 -9t54.5 -23v-109h-29q-3 45 -45 74t-92 29q-44 0 -70.5 -25t-26.5 -66q0 -75 162 -152q84 -38 115 -80.5t31 -105.5q0 -96 -57 -159q-70 -58 -156 -59q-40 0 -73 8
q-19 4 -38 4q-13 0 -25 -2q-19 -4 -40 -4q-86 0 -120 39.5t-39 120.5h-1v473h-89z" />
    <glyph glyph-name="Euro" unicode="&#x20ac;" horiz-adv-x="852" 
d="M177 244q-41 89 -50 184h-71l11 40h57v19q0 10 1 20h-47l11 40h39q9 95 49 184q54 117 149 180t195 63q28 0 57 -6q27 -6 54 -19q5 -4 11 -4q13 0 22 30h27l55 -184l-26 -1q-32 88 -91 117q-28 14 -53 21v2q-33 10 -66 10q-11 0 -23 -1q-78 -8 -147.5 -74.5
t-103.5 -179.5q-21 -68 -25 -138h463l-11 -40h-454q0 -19 1 -39h442l-11 -40h-428q11 -103 55 -195q48 -103 126 -155q67 -45 142 -45q122 2 168 60q48 59 48 121h32v-94q0 -46 -73 -83q-69 -36 -175 -37q-119 0 -213.5 64.5t-146.5 179.5z" />
    <glyph glyph-name="uni2116" unicode="&#x2116;" horiz-adv-x="2271" 
 />
    <glyph glyph-name="trademark" unicode="&#x2122;" horiz-adv-x="1101" 
d="M41 976h392l12 -108h-18q-5 39 -28 57.5t-77 18.5h-40v-312q0 -45 11 -57.5t46 -13.5v-20h-201v20q35 3 44.5 14.5t9.5 55.5v313h-41q-52 0 -73.5 -17t-29.5 -59h-18zM637 976l147 -308l142 308h151v-20q-31 0 -41 -5.5t-14.5 -17.5t-4.5 -50v-252q0 -46 10 -57t50 -13
v-20h-215v20q32 0 43 6t16 17.5t5 46.5v265l-165 -355h-17l-166 350v-260q0 -36 4.5 -47t14.5 -17t31 -6h19v-20h-165v20q31 0 41.5 5t15 16.5t4.5 48.5v251q0 41 -4.5 52t-15 16.5t-41.5 5.5v20h155z" />
    <glyph glyph-name="partialdiff" unicode="&#x2202;" horiz-adv-x="1014" 
d="M232 537q0 -41 5 -79q14 -122 61.5 -230t118.5 -165q64 -53 128 -53q6 0 13 1q70 5 127.5 70.5t80.5 179.5q16 73 16 149q0 42 -5 85q-14 122 -62.5 231.5t-119.5 165.5q-65 50 -128 50h-11q-68 -5 -126 -69.5t-82 -178.5q-16 -84 -16 -157zM937 477q0 -132 -56.5 -251
t-159 -185t-214.5 -66t-214.5 66t-159 185t-56.5 251q0 131 58 251t161 185t211 65q109 0 212 -65q29 -18 54 -41q-84 235 -233.5 377t-326.5 155v55q306 0 515 -285t209 -697z" />
    <glyph glyph-name="Delta" unicode="&#x2206;" horiz-adv-x="1081" 
d="M514 1195l-406 -1072h801zM547 1434l526 -1434h-1067z" />
    <glyph glyph-name="product" unicode="&#x220f;" horiz-adv-x="1515" 
d="M511 1384q-102 0 -102 -235v-1281q0 -235 102 -235h97v-51h-560v51h96q103 0 103 235v1281q0 235 -103 235h-96v50h1419v-50h-97q-102 0 -102 -235v-1281q0 -235 102 -235h97v-50h-560v50h96q103 0 103 235v1281q0 235 -103 235h-492z" />
    <glyph glyph-name="summation" unicode="&#x2211;" horiz-adv-x="1206" 
d="M1059 548l-788 -914h635q130 0 189 182h49l-103 -232h-921v50q62 0 106 53l663 781l-663 859q-44 57 -106 57v50h921l103 -232h-49q-59 182 -189 182h-485z" />
    <glyph glyph-name="minus" unicode="&#x2212;" horiz-adv-x="900" 
d="M808 535q-57 -49 -81 -106l-637 1q73 51 71 108z" />
    <glyph glyph-name="radical" unicode="&#x221a;" horiz-adv-x="1014" 
d="M181 0l-164 359l74 35l85 -185l728 1470h150v-60h-72z" />
    <glyph glyph-name="infinity" unicode="&#x221e;" horiz-adv-x="1014" 
d="M439 755q-15 103 -74 133q-46 22 -84 22q-12 0 -23 -2q-49 -10 -92.5 -44.5t-65.5 -84.5q-20 -46 -20 -90v-8q2 -48 27.5 -89t71.5 -58q29 -11 61 -11q16 0 33 3q47 10 90.5 43.5t75.5 185.5zM466 687q12 -96 94 -153q69 -48 123 -48q11 0 21 2q62 12 117.5 52t84.5 101
q26 54 26 108v11q-2 60 -35.5 108.5t-91.5 68.5q-37 13 -76 13q-22 0 -44 -4q-67 -9 -127 -62t-92 -197zM450 827q9 35 21 69q34 88 95 137t128 49t128 -48t95 -135t34 -182t-34 -182t-95 -135t-128 -48t-128 49t-95 136q-12 35 -21 70q-5 -21 -12 -41q-27 -73 -74 -113
t-99 -40t-100 41t-73.5 113.5t-25.5 149.5q0 76 25.5 149t73.5 114t100 41t99 -40t74 -112q7 -21 12 -42z" />
    <glyph glyph-name="integral" unicode="&#x222b;" horiz-adv-x="665" 
d="M-12 -281q-60 0 -60 29v159h36q1 -43 34.5 -64.5t63.5 -21.5h1q82 0 115 162q32 162 40 316l70 734l8 62q27 238 135 429.5t234 191.5q60 0 60 -29v-159h-36q-1 43 -35 64.5t-63 21.5q-71 0 -116 -155.5t-49 -363.5l-73 -767q-20 -231 -130.5 -420t-234.5 -189z" />
    <glyph glyph-name="approxequal" unicode="&#x2248;" horiz-adv-x="1014" 
d="M923 1053v-156q-63 -72 -122 -97.5t-116 -25.5q-60 0 -177.5 48.5t-176.5 48.5q-51 0 -107.5 -28t-129.5 -112v156q64 73 123 99t114 26q64 0 181.5 -49.5t172.5 -49.5q52 0 108.5 28t129.5 112zM923 705v-156q-63 -72 -122 -97.5t-116 -25.5q-60 0 -177.5 48.5
t-176.5 48.5q-51 0 -107.5 -28t-129.5 -112v156q64 73 123 99t114 26q64 0 181.5 -49.5t172.5 -49.5q52 0 108.5 28t129.5 112z" />
    <glyph glyph-name="lessequal" unicode="&#x2264;" horiz-adv-x="1014" 
d="M927 1074l-625 -359l625 -355v-167l-840 481v83l840 484v-167zM87 1v140h839l1 -1v-139h-840z" />
    <glyph glyph-name="greaterequal" unicode="&#x2265;" horiz-adv-x="1014" 
d="M87 1241l840 -484v-83l-840 -481v167l625 355l-625 359v167zM87 2v140h839l1 -1v-139h-840z" />
    <glyph glyph-name="uniF001" unicode="&#xf001;" horiz-adv-x="1073" 
 />
    <glyph glyph-name="uniF001" unicode="&#xfb01;" horiz-adv-x="1073" 
 />
    <glyph glyph-name="uniF002" unicode="&#xf002;" horiz-adv-x="1081" 
 />
    <glyph glyph-name="uniF002" unicode="&#xfb02;" horiz-adv-x="1081" 
 />
  </font>
</defs>
</svg>
